<?xml version="1.0" standalone="no"?>
<!DOCTYPE svg PUBLIC "-//W3C//DTD SVG 1.1//EN" "http://www.w3.org/Graphics/SVG/1.1/DTD/svg11.dtd" >
<svg xmlns="http://www.w3.org/2000/svg" xmlns:xlink="http://www.w3.org/1999/xlink" version="1.1">
<metadata>
Created by FontForge 20170731 at Tue Mar 17 00:30:40 2015
 By Aleksey,,,
Copyright (c) 2007, 2008-2014 Carter &#38; Cone Type Inc.  All rights reserved. Rev 1.001.
</metadata>
<defs>
<font id="NYTFranklin-Light" horiz-adv-x="1167" >
  <font-face 
    font-family="NYTFranklin Light"
    font-weight="300"
    font-stretch="normal"
    units-per-em="2048"
    panose-1="2 0 0 0 0 0 0 0 0 0"
    ascent="1571"
    descent="-477"
    x-height="1040"
    cap-height="1434"
    bbox="-401 -385 2351 1907"
    underline-thickness="41"
    underline-position="-312"
    unicode-range="U+0020-FB02"
  />
<missing-glyph horiz-adv-x="584" 
 />
    <glyph glyph-name="fi" unicode="fi" horiz-adv-x="1047" 
d="M879 1040v-1040h-117v1040h117zM885 1434v-183h-129v183h129zM608 1432v-107q-25 3 -62 6.5t-63 3.5q-67 0 -112 -26t-45 -97v-172h209v-94h-209v-946h-117v946h-164v94h164v136q0 53 16.5 98.5t42.5 77.5q37 46 88.5 69t102.5 23q32 0 72 -3t77 -9z" />
    <glyph glyph-name="fl" unicode="fl" horiz-adv-x="1047" 
d="M608 1432v-107q-25 3 -62 6.5t-63 3.5q-67 0 -112 -26t-45 -97v-172h209v-94h-209v-946h-117v946h-164v94h164v136q0 53 16.5 98.5t42.5 77.5q37 46 88.5 69t102.5 23q32 0 72 -3t77 -9zM879 1434v-1434h-117v1434h117z" />
    <glyph glyph-name=".notdef" horiz-adv-x="584" 
 />
    <glyph glyph-name=".null" horiz-adv-x="0" 
 />
    <glyph glyph-name="nonmarkingreturn" horiz-adv-x="682" 
 />
    <glyph glyph-name="NUL" horiz-adv-x="0" 
 />
    <glyph glyph-name="NUL" horiz-adv-x="0" 
 />
    <glyph glyph-name="space" unicode=" " horiz-adv-x="584" 
 />
    <glyph glyph-name="exclam" unicode="!" horiz-adv-x="612" 
d="M399 186v-186h-184v186h184zM227 1434h160l-49 -1112h-64z" />
    <glyph glyph-name="quotedbl" unicode="&#x22;" horiz-adv-x="795" 
d="M141 1434h195l-72 -476h-51zM459 1434h192l-69 -476h-56z" />
    <glyph glyph-name="numbersign" unicode="#" 
d="M838 793h209l-23 -80h-199l-39 -262h211l-22 -80h-199l-53 -371h-88l51 371h-264l-53 -371h-88l51 371h-211l22 80h199l37 262h-209l23 80h196l53 372h95l-54 -372h260l54 372h94zM696 451l37 262h-262l-39 -262h264z" />
    <glyph glyph-name="dollar" unicode="$" 
d="M625 739q216 -44 323 -132.5t107 -244.5t-115 -263.5t-315 -112.5v-199h-84v201q-159 9 -269.5 79.5t-171.5 174.5l95 67q67 -91 160 -153t186 -62v537q-197 48 -296.5 133t-99.5 221q0 149 109 244.5t287 107.5v172h84v-172q158 -13 257 -64.5t146 -129.5l-82 -82
q-55 70 -138 122t-183 52v-496zM274 999q0 -91 66.5 -152.5t200.5 -88.5v473q-119 -3 -193 -67t-74 -165zM625 90q137 -3 220 66.5t83 191.5q0 112 -73.5 175.5t-229.5 88.5v-522z" />
    <glyph glyph-name="percent" unicode="%" horiz-adv-x="1751" 
d="M481 1401q131 0 227.5 -95t96.5 -231q0 -133 -96.5 -228t-227.5 -95q-133 0 -228 95t-95 228q0 136 95 231t228 95zM479 856q89 0 148 63t59 158q0 96 -59 156.5t-148 60.5t-148 -60.5t-59 -156.5q0 -95 59 -158t148 -63zM1276 625q131 0 227 -95t96 -231
q0 -133 -96 -228.5t-227 -95.5q-133 0 -228.5 95.5t-95.5 228.5q0 136 95.5 231t228.5 95zM1274 80q89 0 148 63t59 158q0 96 -59 156.5t-148 60.5t-148 -60.5t-59 -156.5q0 -95 59 -158t148 -63zM1315 1376h123l-1000 -1376h-121z" />
    <glyph glyph-name="ampersand" unicode="&#x26;" horiz-adv-x="1294" 
d="M1282 96v-98q-38 -9 -54.5 -11.5t-45.5 -2.5q-103 -1 -158 41.5t-113 109.5q-72 -76 -174.5 -115.5t-208.5 -39.5q-196 0 -321 126t-125 302q0 148 87 262.5t249 171.5q-74 104 -111 178t-37 160q0 127 95 205.5t217 78.5q136 0 225.5 -81t89.5 -216q0 -114 -74 -211
t-227 -168l330 -487q75 101 113 232.5t55 277.5l133 -23q-23 -146 -78.5 -286t-159.5 -277q26 -43 78.5 -88t122.5 -45q18 0 37.5 0.5t54.5 3.5zM539 874q116 45 175.5 125t59.5 164q0 77 -52 133t-140 56q-81 0 -132 -50t-51 -133q0 -24 8 -52t21 -62q16 -37 45 -84.5
t66 -96.5zM547 92q84 0 160.5 30.5t134.5 94.5l-369 539q-134 -52 -196 -143t-62 -195q0 -136 89 -231t243 -95z" />
    <glyph glyph-name="quotesingle" unicode="'" horiz-adv-x="477" 
d="M141 1434h195l-72 -476h-51z" />
    <glyph glyph-name="parenleft" unicode="(" horiz-adv-x="694" 
d="M317 565q0 -246 75.5 -459.5t223.5 -410.5h-104q-166 200 -246 415t-80 455q0 237 80 454t246 415h102q-151 -201 -224 -413.5t-73 -455.5z" />
    <glyph glyph-name="parenright" unicode=")" horiz-adv-x="694" 
d="M182 1434q167 -198 246.5 -415t79.5 -454q0 -240 -79.5 -455t-246.5 -415h-104q148 197 223.5 410.5t75.5 459.5q0 243 -73 455.5t-224 413.5h102z" />
    <glyph glyph-name="asterisk" unicode="*" horiz-adv-x="1085" 
d="M862 1255l43 -145l-327 -47l241 -232l-125 -92l-147 310l-150 -310l-125 92l244 232l-334 47l45 143l301 -153l-59 334h152l-60 -334z" />
    <glyph glyph-name="plus" unicode="+" 
d="M1059 598v-113h-420v-419h-113v419h-420v113h420v418h113v-418h420z" />
    <glyph glyph-name="comma" unicode="," horiz-adv-x="584" 
d="M383 203v-180l-123 -269h-84l113 254h-88v195h182z" />
    <glyph glyph-name="hyphen" unicode="-" horiz-adv-x="702" 
d="M586 606v-121h-469v121h469z" />
    <glyph glyph-name="period" unicode="." horiz-adv-x="584" 
d="M383 203v-203h-182v203h182z" />
    <glyph glyph-name="slash" unicode="/" horiz-adv-x="1022" 
d="M819 1434h119l-827 -1751h-119z" />
    <glyph glyph-name="zero" unicode="0" 
d="M586 1403q222 0 363 -183t141 -532q0 -337 -139.5 -524t-364.5 -187q-236 0 -372 189t-136 522q0 343 138.5 529t369.5 186zM588 88q162 0 264 155.5t102 444.5q0 300 -103 452t-263 152q-169 0 -272 -152t-103 -452q0 -290 101.5 -445t273.5 -155z" />
    <glyph glyph-name="one" unicode="1" 
d="M991 106v-106h-731v106h313v1119l-313 -158v92q141 73 199.5 115t144.5 112h94v-1280h293z" />
    <glyph glyph-name="two" unicode="2" 
d="M1047 119v-119h-945v96q96 98 223.5 195t243.5 196q131 113 225.5 236.5t94.5 263.5q0 150 -86 227.5t-230 77.5q-128 0 -219 -75.5t-125 -208.5l-127 41q51 169 177 261.5t299 92.5q204 0 326 -113t122 -307q0 -151 -91 -281t-216 -241q-107 -93 -223.5 -178.5
t-206.5 -163.5h758z" />
    <glyph glyph-name="three" unicode="3" 
d="M739 717q158 -33 234 -122.5t76 -207.5q0 -179 -138.5 -294.5t-375.5 -115.5q-172 0 -292 73t-194 216l121 58q53 -106 149 -172t226 -66q161 0 262.5 80t101.5 223q0 126 -84 194t-252 68h-204v111h184q142 0 227.5 78.5t85.5 197.5q0 107 -77.5 180.5t-215.5 73.5
q-116 0 -205.5 -66.5t-140.5 -172.5l-121 49q68 138 189 219.5t280 81.5q193 0 312 -99t119 -260q0 -114 -70 -200t-197 -127z" />
    <glyph glyph-name="four" unicode="4" 
d="M1143 455v-109h-256v-356h-113v356h-713v76l705 987h121v-954h256zM207 455h565v792z" />
    <glyph glyph-name="five" unicode="5" 
d="M614 926q205 0 335 -127.5t130 -325.5q0 -212 -152 -354t-378 -142q-157 0 -278.5 77.5t-186.5 205.5l121 59q54 -107 146 -169t210 -62q171 0 276 105.5t105 271.5q0 165 -94.5 256.5t-243.5 91.5q-105 0 -195 -47t-145 -117l-100 64l65 663h795l-12 -114h-682l-56 -476
q64 59 152.5 99.5t187.5 40.5z" />
    <glyph glyph-name="six" unicode="6" 
d="M637 897q206 0 330.5 -124.5t124.5 -309.5q0 -206 -144.5 -346t-343.5 -140q-238 0 -372 177t-134 491q0 343 149.5 550.5t395.5 207.5q152 0 261.5 -68.5t168.5 -193.5l-119 -56q-41 92 -119.5 149.5t-189.5 57.5q-189 0 -297.5 -158.5t-120.5 -418.5q93 85 192.5 133.5
t217.5 48.5zM602 88q154 0 253 102.5t99 270.5q0 143 -91 234t-228 91q-127 0 -230.5 -57t-177.5 -135q10 -245 113 -375.5t262 -130.5z" />
    <glyph glyph-name="seven" unicode="7" 
d="M1085 1376v-86q-209 -270 -371 -584.5t-225 -705.5h-143q52 316 217.5 647t376.5 615h-850l16 114h979z" />
    <glyph glyph-name="eight" unicode="8" 
d="M766 719q157 -54 235 -146.5t78 -222.5q0 -159 -130 -266t-367 -107q-243 0 -368.5 103.5t-125.5 263.5q0 127 75.5 223.5t235.5 153.5q-128 43 -199 129t-71 201q0 151 118 251.5t337 100.5q210 0 327 -100t117 -248q0 -112 -65.5 -199.5t-196.5 -136.5zM584 86
q172 0 265 78.5t93 189.5q0 98 -97 186.5t-351 137.5q-157 -51 -215 -138.5t-58 -191.5q0 -121 93.5 -191.5t269.5 -70.5zM672 750q145 67 183 149.5t38 165.5q0 98 -79.5 164.5t-233.5 66.5q-150 0 -233 -72t-83 -165t84.5 -172.5t323.5 -136.5z" />
    <glyph glyph-name="nine" unicode="9" 
d="M563 1403q238 0 372 -177t134 -491q0 -346 -150 -552t-395 -206q-146 0 -257.5 67.5t-174.5 197.5l119 55q49 -99 128 -154t183 -55q189 0 297.5 158.5t120.5 419.5q-93 -86 -192.5 -134.5t-217.5 -48.5q-206 0 -330 125t-124 310q0 205 144 345t343 140zM532 594
q127 0 230.5 57t177.5 135q-10 245 -113 375.5t-262 130.5q-154 0 -253 -102.5t-99 -269.5q0 -144 91 -235t228 -91z" />
    <glyph glyph-name="colon" unicode=":" horiz-adv-x="606" 
d="M393 201v-201h-182v201h182zM393 1040v-200h-182v200h182z" />
    <glyph glyph-name="semicolon" unicode=";" horiz-adv-x="606" 
d="M393 201v-178l-123 -269h-86l113 254h-86v193h182zM393 1040v-200h-182v200h182z" />
    <glyph glyph-name="less" unicode="&#x3c;" 
d="M997 127v-137l-866 512v73l866 506v-137l-712 -407z" />
    <glyph glyph-name="equal" unicode="=" 
d="M1059 434v-112h-950v112h950zM1059 760v-113h-950v113h950z" />
    <glyph glyph-name="greater" unicode="&#x3e;" 
d="M1036 575v-73l-866 -512v137l713 410l-713 407v137z" />
    <glyph glyph-name="question" unicode="?" horiz-adv-x="1104" 
d="M567 1460q211 0 318.5 -125t107.5 -262q0 -84 -38.5 -167.5t-139.5 -166.5q-43 -35 -90.5 -69.5t-110.5 -81.5q-31 -23 -47 -57.5t-16 -106.5v-82h-113v96q0 93 26.5 150t104.5 114q43 32 76 58t94 74q66 50 91.5 114t25.5 119q0 128 -82.5 203.5t-224.5 75.5
q-146 0 -234.5 -97t-107.5 -237l-121 30q32 191 160 304.5t321 113.5zM592 186v-186h-184v186h184z" />
    <glyph glyph-name="at" unicode="@" horiz-adv-x="1980" 
d="M1104 1372q301 0 512 -176t211 -453q0 -166 -62.5 -324.5t-183.5 -256.5q-61 -49 -125.5 -69.5t-107.5 -20.5q-86 0 -129.5 45t-44.5 145q-80 -97 -165.5 -137.5t-164.5 -40.5q-109 0 -177.5 87.5t-68.5 221.5q0 233 129 406.5t303 173.5q72 0 143.5 -29.5t118.5 -136.5
l29 133h123l-141 -537q-11 -40 -13 -77t-2 -62q0 -43 28.5 -72.5t76.5 -29.5q140 0 241 184t101 377q0 253 -185 408t-452 155q-368 0 -600 -251t-232 -593q0 -316 191 -494.5t499 -178.5q116 0 237 27t245 79l26 -84q-120 -50 -263 -79t-277 -29q-344 0 -556 214.5
t-212 532.5q0 393 277 667.5t671 274.5zM1149 338q54 99 74 183t20 171q0 81 -54.5 141t-135.5 60q-49 0 -104.5 -28.5t-96.5 -80.5q-63 -82 -95 -183t-32 -177q0 -124 52 -181t136 -57q63 0 132 43t104 109z" />
    <glyph glyph-name="A" unicode="A" horiz-adv-x="1133" 
d="M655 1434l471 -1434h-133l-147 457h-567l-140 -457h-133l479 1434h170zM317 571h490l-246 758z" />
    <glyph glyph-name="B" unicode="B" horiz-adv-x="1292" 
d="M887 768q159 -43 232 -143.5t73 -225.5q0 -110 -41.5 -189.5t-124.5 -129.5q-64 -40 -156.5 -60t-210.5 -20h-473v1434h533q102 0 183 -25.5t132 -73.5q57 -49 83 -117t26 -149q0 -102 -68.5 -184.5t-187.5 -116.5zM688 115q179 0 267.5 76.5t88.5 203.5
q0 144 -96.5 222.5t-300.5 78.5h-332v-581h373zM659 811q169 0 251.5 70t82.5 194q0 112 -75.5 178t-229.5 66h-373v-508h344z" />
    <glyph glyph-name="C" unicode="C" horiz-adv-x="1260" 
d="M1083 469l117 -31q-54 -226 -190 -343.5t-330 -117.5q-272 0 -429 196.5t-157 545.5q0 331 163.5 536t414.5 205q193 0 325.5 -109t192.5 -337l-139 -27q-35 169 -138 262.5t-239 93.5q-185 0 -309.5 -164t-124.5 -460q0 -284 119.5 -455.5t310.5 -171.5q156 0 261.5 93
t151.5 284z" />
    <glyph glyph-name="D" unicode="D" horiz-adv-x="1366" 
d="M977 1346q143 -100 219 -261.5t76 -367.5q0 -163 -48 -296t-137 -226q-87 -90 -211.5 -142.5t-277.5 -52.5h-412v1434h451q104 0 189 -21t151 -67zM1047 350q38 70 59.5 162.5t21.5 198.5q0 96 -15 180t-46 151q-57 128 -168 202.5t-268 74.5h-316v-1204h322
q142 0 246 62.5t164 172.5z" />
    <glyph glyph-name="E" unicode="E" horiz-adv-x="1153" 
d="M1090 115v-115h-904v1434h885v-115h-756v-522h549v-115h-549v-567h775z" />
    <glyph glyph-name="F" unicode="F" horiz-adv-x="1104" 
d="M1077 1434v-115h-762v-541h578v-114h-578v-664h-129v1434h891z" />
    <glyph glyph-name="G" unicode="G" horiz-adv-x="1364" 
d="M1214 719v-719h-92l-37 182q-59 -92 -166 -149.5t-241 -57.5q-274 0 -429 197t-155 547q0 331 168 536t414 205q194 0 325.5 -94t198.5 -297l-129 -39q-15 40 -30.5 71t-34.5 62q-55 87 -137.5 133.5t-190.5 46.5q-188 0 -314 -164t-126 -462q0 -289 121.5 -458
t330.5 -169q188 0 292.5 96.5t104.5 259.5v158h-401v115h528z" />
    <glyph glyph-name="H" unicode="H" horiz-adv-x="1366" 
d="M1180 1434v-1434h-129v682h-736v-682h-129v1434h129v-637h736v637h129z" />
    <glyph glyph-name="I" unicode="I" horiz-adv-x="506" 
d="M317 1434v-1434h-129v1434h129z" />
    <glyph glyph-name="J" unicode="J" horiz-adv-x="797" 
d="M621 1434v-963q0 -116 -23.5 -209t-69.5 -156q-47 -64 -122 -97.5t-175 -33.5q-44 0 -104.5 9t-112.5 22l19 119q64 -16 112 -25.5t93 -9.5q145 0 199.5 90t54.5 287v967h129z" />
    <glyph glyph-name="K" unicode="K" horiz-adv-x="1276" 
d="M723 905l555 -905h-148l-495 807l-320 -391v-416h-129v1434h129v-865l691 865h147z" />
    <glyph glyph-name="L" unicode="L" horiz-adv-x="1024" 
d="M997 115v-115h-811v1434h129v-1319h682z" />
    <glyph glyph-name="M" unicode="M" horiz-adv-x="1710" 
d="M1524 1434v-1434h-129v1321l-498 -1321h-102l-492 1321v-1321h-117v1434h203l467 -1260l465 1260h203z" />
    <glyph glyph-name="N" unicode="N" horiz-adv-x="1380" 
d="M1194 1434v-1434h-115l-776 1331v-1331h-117v1434h201l690 -1184v1184h117z" />
    <glyph glyph-name="O" unicode="O" horiz-adv-x="1350" 
d="M1087 1270q78 -95 124 -234t46 -319q0 -160 -37.5 -293.5t-107.5 -228.5q-78 -106 -190 -163t-246 -57q-133 0 -246.5 58.5t-191.5 167.5q-66 93 -106 223.5t-40 292.5q0 182 48 321t126 232t183.5 141.5t226.5 48.5q122 0 228.5 -48.5t182.5 -141.5zM676 90
q196 0 317 164t121 465q0 312 -125 468t-313 156q-190 0 -314 -155.5t-124 -468.5q0 -300 121 -464.5t317 -164.5z" />
    <glyph glyph-name="P" unicode="P" horiz-adv-x="1214" 
d="M1030 1327q63 -55 98 -138.5t35 -193.5q0 -87 -34.5 -160t-100.5 -126q-63 -51 -154.5 -81t-205.5 -30h-353v-598h-129v1434h496q111 0 199 -27.5t149 -79.5zM657 713q184 0 273.5 80.5t89.5 230.5q0 122 -87 208.5t-274 86.5h-344v-606h342z" />
    <glyph glyph-name="Q" unicode="Q" horiz-adv-x="1350" 
d="M1280 -139v-129h-31q-181 0 -280 65t-172 193q-28 -7 -59 -11t-62 -4q-133 0 -246.5 58.5t-191.5 167.5q-66 93 -106 223.5t-40 292.5q0 182 48 321t126 232t183.5 141.5t226.5 48.5t227 -48t182 -138q80 -96 126 -236.5t46 -320.5q0 -257 -96.5 -434.5t-253.5 -253.5
q43 -71 117.5 -119.5t192.5 -48.5h63zM676 90q196 0 316 164t120 465q0 312 -124 468t-312 156q-190 0 -314 -155.5t-124 -468.5q0 -300 121 -464.5t317 -164.5z" />
    <glyph glyph-name="R" unicode="R" horiz-adv-x="1309" 
d="M901 674l297 -674h-141l-279 639h-463v-639h-129v1434h469q116 0 207 -23.5t154 -64.5q76 -51 114.5 -129t38.5 -187q0 -134 -72 -219.5t-196 -136.5zM647 754q196 0 288.5 71.5t92.5 210.5q0 127 -90 205t-274 78h-349v-565h332z" />
    <glyph glyph-name="S" unicode="S" horiz-adv-x="1200" 
d="M821 743q162 -50 234.5 -141.5t72.5 -224.5q0 -172 -143 -287t-373 -115q-196 0 -330 87.5t-200 216.5l111 88q59 -116 171 -196.5t259 -80.5q155 0 257.5 77.5t102.5 199.5q0 114 -62.5 174.5t-199.5 95.5q-54 13 -113.5 25.5t-113.5 25.5q-167 42 -258 134.5t-91 236.5
q0 93 46 176.5t133 140.5q53 35 127 59.5t161 24.5q170 0 288.5 -63.5t199.5 -182.5l-111 -92q-60 98 -154.5 159.5t-222.5 61.5q-143 0 -233 -78.5t-90 -193.5q0 -111 66.5 -171.5t197.5 -90.5q69 -16 143 -33t125 -33z" />
    <glyph glyph-name="T" unicode="T" horiz-adv-x="1059" 
d="M1032 1434v-115h-438v-1319h-129v1319h-438v115h1005z" />
    <glyph glyph-name="U" unicode="U" horiz-adv-x="1341" 
d="M1165 1434v-914q0 -73 -10 -136t-27 -114q-46 -143 -160 -219t-309 -76q-200 0 -312.5 90.5t-149.5 253.5q-11 45 -16 97.5t-5 109.5v908h129v-906q0 -81 12.5 -145t34.5 -115q40 -85 117.5 -131.5t198.5 -46.5q122 0 201 41.5t120 118.5q28 51 44 122.5t16 153.5v908
h116z" />
    <glyph glyph-name="V" unicode="V" horiz-adv-x="1137" 
d="M1004 1434h124l-503 -1434h-107l-512 1434h135l432 -1231z" />
    <glyph glyph-name="W" unicode="W" horiz-adv-x="1722" 
d="M1573 1434h123l-379 -1434h-113l-338 1190l-344 -1190h-125l-370 1434h129l319 -1223l342 1223h105l338 -1215z" />
    <glyph glyph-name="X" unicode="X" horiz-adv-x="1163" 
d="M659 741l486 -741h-156l-420 651l-413 -651h-136l488 735l-453 699h154l391 -605l385 605h137z" />
    <glyph glyph-name="Y" unicode="Y" horiz-adv-x="1153" 
d="M1016 1434h139l-516 -885v-549h-129v547l-512 887h152l432 -764z" />
    <glyph glyph-name="Z" unicode="Z" horiz-adv-x="1094" 
d="M1047 115v-115h-1006v106l852 1213h-805v115h959v-103l-859 -1216h859z" />
    <glyph glyph-name="bracketleft" unicode="[" horiz-adv-x="635" 
d="M539 -211v-94h-363v1739h361v-95h-244v-1550h246z" />
    <glyph glyph-name="backslash" unicode="\" horiz-adv-x="1022" 
d="M231 1434l828 -1751h-119l-827 1751h118z" />
    <glyph glyph-name="bracketright" unicode="]" horiz-adv-x="635" 
d="M459 1434v-1739h-363v94h246v1550h-244v95h361z" />
    <glyph glyph-name="asciicircum" unicode="^" 
d="M621 1460l403 -684h-135l-307 531l-310 -531h-135l410 684h74z" />
    <glyph glyph-name="underscore" unicode="_" horiz-adv-x="1006" 
d="M969 -143v-86h-932v86h932z" />
    <glyph glyph-name="grave" unicode="`" horiz-adv-x="942" 
d="M491 1434l186 -285h-100l-266 274v11h180z" />
    <glyph glyph-name="a" unicode="a" horiz-adv-x="1055" 
d="M938 10v-10h-121q-3 19 -11 57t-9 76q-67 -63 -163.5 -107t-195.5 -44q-156 0 -255 76t-99 202q0 173 169 268t533 150v63q0 87 -67 146t-215 59q-90 0 -156.5 -44.5t-99.5 -151.5l-123 20q39 134 139.5 211.5t249.5 77.5q124 0 204.5 -34.5t123.5 -92.5q29 -40 45 -94
t16 -123v-498q0 -75 10.5 -125t24.5 -82zM449 98q104 0 186 33.5t151 99.5v349q-290 -43 -431.5 -116t-141.5 -181q0 -88 59 -136.5t177 -48.5z" />
    <glyph glyph-name="b" unicode="b" horiz-adv-x="1079" 
d="M582 1059q175 0 293 -142t118 -393t-127 -396.5t-323 -145.5q-94 0 -165 45t-130 120l-41 -147h-62q5 35 11 85t6 85v1264h117v-514q75 72 148.5 105.5t154.5 33.5zM557 88q147 0 227 118t80 318q0 184 -77.5 301t-215.5 117q-88 0 -163.5 -39t-128.5 -82v-469
q0 -127 85 -195.5t193 -68.5z" />
    <glyph glyph-name="c" unicode="c" horiz-adv-x="997" 
d="M842 330l92 -45q-36 -129 -135.5 -215t-245.5 -86q-213 0 -341 146.5t-128 391.5q0 230 127 382.5t326 152.5q154 0 257.5 -76t135.5 -217l-117 -33q-29 111 -96 163t-168 52q-163 0 -248.5 -119t-85.5 -317q0 -190 88.5 -303t243.5 -113q121 0 191 61.5t104 174.5z" />
    <glyph glyph-name="d" unicode="d" horiz-adv-x="1079" 
d="M918 1434v-1434h-111v127q-63 -58 -141 -101.5t-179 -43.5q-185 0 -293 152.5t-108 385.5q0 253 126.5 396t301.5 143q89 0 161 -33t126 -94v502h117zM516 98q84 0 155.5 37t129.5 88v608q-54 42 -122 76.5t-155 34.5q-150 0 -229.5 -113.5t-79.5 -304.5
q0 -215 82 -320.5t219 -105.5z" />
    <glyph glyph-name="e" unicode="e" horiz-adv-x="1075" 
d="M893 285l100 -58q-58 -98 -173.5 -170.5t-272.5 -72.5q-208 0 -335.5 144.5t-127.5 373.5q0 236 131 395.5t338 159.5q121 0 214.5 -48t147.5 -143q36 -60 56 -145.5t20 -192.5v-14h-780q0 -196 96 -308t250 -112q120 0 203 52.5t133 138.5zM219 612h647
q-2 154 -79.5 244t-221.5 90q-161 0 -251 -98t-95 -236z" />
    <glyph glyph-name="f" unicode="f" horiz-adv-x="571" 
d="M608 1432v-107q-25 3 -62 6.5t-63 3.5q-67 0 -112 -26t-45 -97v-172h209v-94h-209v-946h-117v946h-164v94h164v136q0 53 16.5 98.5t42.5 77.5q37 46 88.5 69t102.5 23q32 0 72 -3t77 -9z" />
    <glyph glyph-name="g" unicode="g" horiz-adv-x="1026" 
d="M981 1059v-156h-12q-25 16 -54.5 21.5t-58.5 5.5q-15 0 -37.5 -3.5t-30.5 -4.5q29 -42 47.5 -95.5t18.5 -119.5q0 -144 -102.5 -238t-274.5 -94q-46 0 -87.5 10.5t-76.5 26.5q-54 -19 -76 -48.5t-22 -60.5q0 -50 38.5 -68.5t98.5 -21.5l305 -16q166 -10 240 -71t74 -169
q0 -124 -118 -211.5t-372 -87.5q-231 0 -334.5 78t-103.5 188q0 67 44 124.5t128 86.5q-63 26 -89 61t-26 87q0 46 31.5 94t114.5 80q-66 47 -99.5 106t-33.5 137q0 149 106.5 253t278.5 104q57 0 122.5 -21.5t116.5 -62.5q49 44 111.5 65t132.5 21zM508 -242q174 0 256 52
t82 133q0 72 -50.5 106.5t-185.5 38.5l-325 12q-60 -29 -87.5 -64.5t-27.5 -86.5q0 -90 81.5 -140.5t256.5 -50.5zM483 471q110 0 178 68t68 172q0 107 -68.5 177t-177.5 70q-108 0 -176.5 -72t-68.5 -179q0 -104 67.5 -170t177.5 -66z" />
    <glyph glyph-name="h" unicode="h" horiz-adv-x="1096" 
d="M944 707v-707h-117v713q0 116 -54 173.5t-171 57.5q-83 0 -162.5 -41.5t-160.5 -111.5v-791h-117v1434h117v-543q76 83 163.5 125.5t194.5 42.5q105 0 175.5 -48.5t96.5 -109.5q20 -49 27.5 -96.5t7.5 -97.5z" />
    <glyph glyph-name="i" unicode="i" horiz-adv-x="455" 
d="M287 1040v-1040h-117v1040h117zM293 1434v-183h-129v183h129z" />
    <glyph glyph-name="j" unicode="j" horiz-adv-x="455" 
d="M295 1040v-1091q0 -67 -17 -116t-42 -83q-37 -46 -86.5 -68t-100.5 -22q-35 0 -75 3t-83 9v107q29 -4 60.5 -8t62.5 -4q71 0 117.5 30.5t46.5 122.5v1120h117zM301 1434v-183h-129v183h129z" />
    <glyph glyph-name="k" unicode="k" horiz-adv-x="967" 
d="M561 655l402 -655h-132l-350 569l-202 -221v-348h-117v1434h117v-959l487 565h137z" />
    <glyph glyph-name="l" unicode="l" horiz-adv-x="455" 
d="M287 1434v-1434h-117v1434h117z" />
    <glyph glyph-name="m" unicode="m" horiz-adv-x="1675" 
d="M1524 713v-713h-117v731q0 103 -50 158t-151 55q-68 0 -145.5 -41.5t-159.5 -109.5v-793h-117v731q0 106 -47.5 159.5t-152.5 53.5q-73 0 -160.5 -51.5t-144.5 -101.5v-791h-117v1040h112v-149q63 72 145.5 120t192.5 48q101 0 166.5 -47t104.5 -129q75 79 156.5 127.5
t195.5 48.5q91 0 160.5 -45t97.5 -111q20 -47 25.5 -95.5t5.5 -94.5z" />
    <glyph glyph-name="n" unicode="n" horiz-adv-x="1096" 
d="M944 707v-707h-117v713q0 116 -54 173.5t-171 57.5q-86 0 -168.5 -44.5t-154.5 -108.5v-791h-117v1040h112v-153q83 87 170.5 129.5t192.5 42.5q97 0 170 -44.5t102 -113.5q20 -49 27.5 -96.5t7.5 -97.5z" />
    <glyph glyph-name="o" unicode="o" horiz-adv-x="1079" 
d="M539 1057q210 0 333 -147.5t123 -387.5q0 -244 -124.5 -391t-331.5 -147q-202 0 -328.5 147t-126.5 391q0 234 122.5 384.5t332.5 150.5zM539 94q157 0 241 114t84 316q0 194 -83 308t-242 114t-241.5 -112.5t-82.5 -309.5q0 -201 82 -315.5t242 -114.5z" />
    <glyph glyph-name="p" unicode="p" horiz-adv-x="1079" 
d="M596 1059q172 0 284.5 -151.5t112.5 -383.5q0 -256 -124 -398t-298 -142q-76 0 -155.5 34t-136.5 95v-453h-117v1380h112v-133q63 72 145 112t177 40zM565 100q145 0 222 110.5t77 301.5q0 214 -78.5 322t-222.5 108q-79 0 -153 -43t-131 -90v-598q51 -38 127.5 -74.5
t158.5 -36.5z" />
    <glyph glyph-name="q" unicode="q" horiz-adv-x="1079" 
d="M866 1040h62q-4 -31 -7 -80t-3 -81v-1219h-117v459q-74 -67 -153.5 -101t-162.5 -34q-173 0 -286 144.5t-113 385.5q0 253 125 399t321 146q106 0 174 -40.5t125 -117.5zM502 100q86 0 165 30t134 69v499q0 121 -80.5 185.5t-198.5 64.5q-145 0 -226 -121.5t-81 -318.5
q0 -182 75 -295t212 -113z" />
    <glyph glyph-name="r" unicode="r" horiz-adv-x="666" 
d="M643 1055v-150h-6q-32 4 -43.5 5t-24.5 1q-88 0 -161.5 -45t-128.5 -121v-745h-117v1040h108v-206q70 96 169.5 158.5t203.5 62.5z" />
    <glyph glyph-name="s" unicode="s" horiz-adv-x="920" 
d="M549 569q157 -36 235 -101.5t78 -182.5q0 -136 -119 -218.5t-288 -82.5q-118 0 -224.5 56.5t-169.5 168.5l101 74q50 -89 127 -141t184 -52q106 0 184 48t78 136q0 69 -42 107t-115 59q-37 11 -105 26t-123 32q-129 42 -184 105t-55 167q0 63 30.5 116.5t77.5 88.5
q52 40 115.5 61t126.5 21q121 0 217 -49.5t153 -157.5l-106 -70q-33 69 -100 118.5t-152 49.5q-97 0 -165 -46t-68 -132q0 -63 43 -102t104 -58q22 -6 68 -18t94 -23z" />
    <glyph glyph-name="t" unicode="t" horiz-adv-x="629" 
d="M563 102v-96q-38 -12 -69.5 -18t-65.5 -6q-110 0 -165.5 67.5t-55.5 206.5v690h-160v94h158l18 320h101v-320h239v-94h-239v-723q0 -72 35.5 -103.5t97.5 -31.5q15 0 51.5 5t54.5 9z" />
    <glyph glyph-name="u" unicode="u" horiz-adv-x="1092" 
d="M930 1040v-1040h-113v154q-58 -68 -149 -120t-215 -52q-104 0 -173 48t-94 109q-19 49 -27.5 96.5t-8.5 98.5v706h116v-712q0 -106 50.5 -169t175.5 -63q91 0 176 49.5t145 106.5v788h117z" />
    <glyph glyph-name="v" unicode="v" horiz-adv-x="901" 
d="M764 1040h123l-383 -1040h-111l-379 1040h127l314 -888z" />
    <glyph glyph-name="w" unicode="w" horiz-adv-x="1378" 
d="M1231 1040h121l-324 -1040h-100l-236 862l-246 -862h-104l-313 1040h131l239 -845l244 845h102l236 -856z" />
    <glyph glyph-name="x" unicode="x" horiz-adv-x="911" 
d="M532 528l357 -528h-139l-308 457l-290 -457h-129l362 541l-336 499h137l283 -422l272 422h129z" />
    <glyph glyph-name="y" unicode="y" horiz-adv-x="899" 
d="M762 1040h123l-391 -1067q-57 -156 -133 -234.5t-201 -78.5q-28 0 -54.5 3.5t-58.5 12.5v111q41 -7 66.5 -12.5t50.5 -5.5q96 0 142.5 55t84.5 174l-377 1042h125l318 -878z" />
    <glyph glyph-name="z" unicode="z" horiz-adv-x="836" 
d="M801 96v-96h-760v72l594 870h-557v98h706v-71l-596 -873h613z" />
    <glyph glyph-name="braceleft" unicode="{" horiz-adv-x="727" 
d="M629 -209v-96h-21q-156 0 -241.5 80t-85.5 250v282q0 95 -32.5 151t-121.5 56h-53v100h53q89 0 121.5 55.5t32.5 151.5v283q0 169 85.5 249.5t241.5 80.5h21v-97h-54q-88 0 -125.5 -55t-37.5 -152v-251q0 -135 -57 -215.5t-175 -100.5q118 -16 175 -97.5t57 -215.5v-252
q0 -96 37.5 -151.5t125.5 -55.5h54z" />
    <glyph glyph-name="bar" unicode="|" horiz-adv-x="567" 
d="M340 1434v-1751h-113v1751h113z" />
    <glyph glyph-name="braceright" unicode="}" horiz-adv-x="727" 
d="M653 614v-100h-53q-89 0 -121.5 -56t-32.5 -151v-282q0 -170 -85.5 -250t-241.5 -80h-21v96h54q88 0 125.5 55.5t37.5 151.5v252q0 134 57 215.5t175 97.5q-118 20 -175 100.5t-57 215.5v251q0 97 -37.5 152t-125.5 55h-54v97h21q156 0 241.5 -80.5t85.5 -249.5v-283
q0 -96 32.5 -151.5t121.5 -55.5h53z" />
    <glyph glyph-name="asciitilde" unicode="~" 
d="M942 745h115q-1 -175 -69.5 -289t-188.5 -114q-72 0 -128 28.5t-126 127.5q-49 70 -86 103.5t-88 33.5q-78 0 -111.5 -76.5t-36.5 -220.5h-117q0 180 67.5 293.5t193.5 113.5q78 0 132 -32t113 -115q39 -54 81.5 -100.5t94.5 -46.5q80 0 114 75t40 219z" />
    <glyph glyph-name="nonbreakingspace" unicode="&#xa0;" horiz-adv-x="584" 
 />
    <glyph glyph-name="exclamdown" unicode="&#xa1;" horiz-adv-x="612" 
d="M338 797l49 -1112h-160l47 1112h64zM399 1118v-186h-184v186h184z" />
    <glyph glyph-name="cent" unicode="&#xa2;" 
d="M918 498l94 -43q-32 -107 -121 -192.5t-229 -94.5v-234h-87v234q-181 19 -299 152.5t-118 359.5q0 200 112 348t305 162v201h87v-201q146 -12 233 -89.5t113 -189.5l-119 -30q-13 47 -58.5 119.5t-168.5 84.5v-813q130 11 181.5 85t74.5 141zM293 670q0 -156 70 -267.5
t212 -130.5v811q-151 -18 -216.5 -138.5t-65.5 -274.5z" />
    <glyph glyph-name="sterling" unicode="&#xa3;" 
d="M1040 289l99 -68q-74 -129 -167 -185t-208 -56q-129 0 -217 40.5t-178 104.5q-40 -62 -105 -102t-164 -43v110q122 27 172 106t50 242q0 43 -5 81t-12 73h-192v84h172q-20 70 -37 150t-17 171q0 164 118 286t325 122q136 0 233.5 -46t184.5 -134l-86 -92
q-52 63 -139.5 113t-190.5 50q-133 0 -222 -77t-89 -207q0 -92 16 -173t35 -163h432v-84h-416q6 -37 10 -73t4 -75q0 -57 -10 -124.5t-35 -118.5q58 -47 146.5 -79t204.5 -32q98 0 170 52t118 147z" />
    <glyph glyph-name="currency" unicode="&#xa4;" 
d="M707 1405q135 0 225.5 -44.5t167.5 -127.5l-107 -74q-54 64 -117.5 100.5t-164.5 36.5q-141 0 -229.5 -116.5t-116.5 -302.5h436v-82h-449q-1 -28 -2.5 -56t-1.5 -57q0 -32 1.5 -63t2.5 -60h381v-82h-366q31 -180 124 -285.5t244 -105.5q78 0 147 46t122 116l92 -78
q-84 -94 -181 -142t-239 -48q-150 0 -271 125t-163 372h-150v82h139q-1 28 -2.5 58t-1.5 61t1.5 60t2.5 57h-139v82h148q40 259 169 393.5t298 134.5z" />
    <glyph glyph-name="yen" unicode="&#xa5;" 
d="M975 1376h119l-299 -565h258v-84h-318l-100 -182v-49h418v-84h-418v-412h-105v412h-413v84h411v45l-104 186h-307v84h260l-305 565h129l387 -749z" />
    <glyph glyph-name="section" unicode="&#xa7;" 
d="M778 856q121 -43 184.5 -110.5t63.5 -163.5q0 -80 -56 -152.5t-143 -107.5q47 -27 79 -77.5t32 -131.5q0 -116 -113.5 -201.5t-261.5 -85.5q-106 0 -208.5 42.5t-157.5 119.5l75 96q44 -55 121.5 -99t169.5 -44q108 0 178 49t70 131q0 52 -40.5 93t-160.5 81
q-65 22 -119 42t-98 36q-122 44 -184 110t-62 162q0 78 55.5 150t141.5 106q-48 32 -81.5 85t-33.5 134q0 122 120.5 201.5t254.5 79.5q104 0 202 -41t148 -121l-73 -96q-41 56 -113.5 100.5t-163.5 44.5q-107 0 -177.5 -48t-70.5 -130q0 -55 45.5 -96.5t137.5 -73.5
q112 -39 154 -54t85 -30zM768 362q56 23 97.5 68t41.5 115q0 64 -42 115t-169 96l-293 104q-61 -27 -100 -71t-39 -105q0 -64 44 -114t139 -86q60 -23 154.5 -59t166.5 -63z" />
    <glyph glyph-name="dieresis" unicode="&#xa8;" horiz-adv-x="942" 
d="M369 1378v-174h-137v174h137zM711 1378v-174h-137v174h137z" />
    <glyph glyph-name="copyright" unicode="&#xa9;" horiz-adv-x="1591" 
d="M1026 588l88 -35q-27 -110 -103 -182t-184 -72q-88 0 -158 32.5t-116 92.5q-40 52 -64 125t-24 162q0 82 28 160t74 133q43 50 105.5 80t138.5 30q124 0 199.5 -64.5t101.5 -183.5l-108 -22q-18 72 -62.5 114.5t-120.5 42.5q-75 0 -121.5 -32.5t-72.5 -85.5
q-20 -40 -27.5 -89t-7.5 -100q0 -49 7.5 -89.5t27.5 -80.5q24 -49 70.5 -81.5t119.5 -32.5q84 0 132.5 43t76.5 135zM797 1415q290 0 498 -208t208 -500q0 -291 -208 -499t-498 -208q-292 0 -499.5 208t-207.5 499q0 292 207.5 500t499.5 208zM797 88q254 0 436 182.5
t182 436.5q0 255 -182 437.5t-436 182.5q-255 0 -438 -182.5t-183 -437.5q0 -254 183 -436.5t438 -182.5z" />
    <glyph glyph-name="ordfeminine" unicode="&#xaa;" horiz-adv-x="909" 
d="M750 772q0 -44 5.5 -79.5t20.5 -80.5h-127q-3 19 -7.5 38.5t-8.5 58.5q-64 -52 -128.5 -81.5t-125.5 -29.5q-98 0 -176 52t-78 157q0 124 120.5 198t383.5 103v53q0 61 -42.5 102.5t-142.5 41.5q-85 0 -121.5 -47t-50.5 -93l-116 23q31 99 104.5 155t194.5 56
q136 0 215.5 -58.5t79.5 -195.5v-373zM410 696q63 0 115 22t104 66v244q-190 -28 -283.5 -75.5t-93.5 -127.5q0 -43 28.5 -86t129.5 -43z" />
    <glyph glyph-name="guillemotleft" unicode="&#xab;" horiz-adv-x="1020" 
d="M428 918l86 -58l-274 -311l274 -309l-86 -58l-301 334v68zM805 918l86 -58l-275 -311l275 -309l-86 -58l-301 334v68z" />
    <glyph glyph-name="logicalnot" unicode="&#xac;" 
d="M1038 618v-532h-118v420h-814v112h932z" />
    <glyph glyph-name="uni00AD" unicode="&#xad;" horiz-adv-x="702" 
d="M586 606v-121h-469v121h469z" />
    <glyph glyph-name="registered" unicode="&#xae;" horiz-adv-x="1051" 
d="M551 1169q58 0 108 -35t50 -104q0 -44 -24 -80t-67 -55l89 -197h-93l-82 187h-88v-187h-84v471h191zM526 1382q182 0 312.5 -130t130.5 -312t-130.5 -311t-312.5 -129q-183 0 -313.5 129t-130.5 311t130.5 312t313.5 130zM526 561q156 0 267.5 111t111.5 268t-111.5 269
t-267.5 112q-157 0 -269 -112t-112 -269t112 -268t269 -111zM545 967q21 0 46 15t25 46t-20.5 45t-48.5 14h-103v-120h101z" />
    <glyph glyph-name="macron" unicode="&#xaf;" horiz-adv-x="942" 
d="M754 1356v-103h-566v103h566z" />
    <glyph glyph-name="degree" unicode="&#xb0;" horiz-adv-x="946" 
d="M475 1444q124 0 214.5 -90.5t90.5 -218.5q0 -125 -90.5 -216.5t-214.5 -91.5q-125 0 -216 91.5t-91 216.5q0 128 91 218.5t216 90.5zM473 932q83 0 137 58t54 147q0 88 -54 143t-137 55q-81 0 -135.5 -55t-54.5 -143q0 -89 54.5 -147t135.5 -58z" />
    <glyph glyph-name="plusminus" unicode="&#xb1;" 
d="M1059 731v-113h-420v-389h-113v389h-420v113h420v387h113v-387h420zM1059 113v-113h-953v113h953z" />
    <glyph glyph-name="twosuperior" unicode="&#xb2;" horiz-adv-x="985" 
d="M813 713v-95h-620v72q102 66 182 122t143 108q73 60 121.5 137t48.5 143q0 73 -46 117.5t-136 44.5q-83 0 -137.5 -46.5t-108.5 -115.5l-74 80q69 79 148.5 127.5t171.5 48.5q134 0 215.5 -71.5t81.5 -192.5q0 -75 -46.5 -148t-156.5 -172q-38 -34 -96 -75t-119 -84h428z
" />
    <glyph glyph-name="threesuperior" unicode="&#xb3;" horiz-adv-x="1008" 
d="M672 1040q76 -25 114.5 -77t38.5 -115q0 -109 -92 -184.5t-252 -75.5q-90 0 -172 34.5t-157 106.5l77 80q48 -57 123 -90t137 -33q95 0 159.5 40t64.5 120q0 58 -49 97.5t-154 39.5h-139v104h133q81 0 132.5 37t51.5 97q0 63 -49 102t-131 39q-61 0 -119 -34.5
t-102 -92.5l-88 65q67 83 145.5 119.5t161.5 36.5q136 0 215.5 -69t79.5 -170q0 -55 -34.5 -99t-94.5 -78z" />
    <glyph glyph-name="acute" unicode="&#xb4;" horiz-adv-x="942" 
d="M679 1434v-11l-263 -274h-100l184 285h179z" />
    <glyph glyph-name="paragraph" unicode="&#xb6;" horiz-adv-x="1059" 
d="M926 1434v-1602h-92v1522h-148v-1522h-92v875q-243 0 -372.5 95t-129.5 273q0 96 48 172.5t114 120.5q51 35 124.5 50.5t172.5 15.5h375zM338 1085q0 -137 54.5 -202.5t201.5 -87.5v559q-137 0 -196.5 -68.5t-59.5 -200.5z" />
    <glyph glyph-name="periodcentered" unicode="&#xb7;" horiz-adv-x="563" 
d="M373 764v-203h-183v203h183z" />
    <glyph glyph-name="cedilla" unicode="&#xb8;" horiz-adv-x="942" 
d="M477 -78q116 -12 143 -62.5t27 -88.5q0 -66 -57.5 -106t-130.5 -40q-34 0 -77 8t-87 25l27 68q27 -16 59 -25.5t53 -9.5q40 0 73.5 15t33.5 58q0 42 -38 68t-102 29l60 139h47z" />
    <glyph glyph-name="onesuperior" unicode="&#xb9;" horiz-adv-x="915" 
d="M729 707v-93h-481v93h192v620l-190 -80v78q93 41 130 68.5t89 70.5h84v-757h176z" />
    <glyph glyph-name="ordmasculine" unicode="&#xba;" horiz-adv-x="944" 
d="M471 1399q159 0 254.5 -110.5t95.5 -291.5q0 -183 -97 -294t-253 -111q-153 0 -250.5 111t-97.5 294q0 162 90 282t258 120zM471 686q118 0 168.5 88.5t50.5 222.5q0 122 -47.5 216t-171.5 94q-118 0 -168.5 -90t-50.5 -220q0 -134 51.5 -222.5t167.5 -88.5z" />
    <glyph glyph-name="guillemotright" unicode="&#xbb;" horiz-adv-x="1020" 
d="M516 584v-68l-301 -334l-86 58l274 309l-274 311l86 58zM893 584v-68l-301 -334l-86 58l274 309l-274 311l86 58z" />
    <glyph glyph-name="onequarter" unicode="&#xbc;" horiz-adv-x="2011" 
d="M729 707v-93h-481v93h192v620l-190 -80v78q93 41 130 68.5t89 70.5h84v-757h176zM1786 301v-94h-156v-221h-98v221h-451v51l453 600h96v-557h156zM1217 301h315v420zM1505 1456h123l-1086 -1483h-122z" />
    <glyph glyph-name="onehalf" unicode="&#xbd;" horiz-adv-x="2011" 
d="M1837 94v-94h-620v72q102 66 182 121.5t143 107.5q73 61 121.5 138t48.5 143q0 73 -46 117t-136 44q-83 0 -137.5 -46t-108.5 -115l-74 80q69 79 148.5 127.5t171.5 48.5q134 0 215.5 -72t81.5 -193q0 -75 -46.5 -148t-156.5 -171q-38 -34 -96 -75.5t-119 -84.5h428z
M729 707v-93h-481v93h192v620l-190 -80v78q93 41 130 68.5t89 70.5h84v-757h176zM1491 1456h123l-1086 -1483h-122z" />
    <glyph glyph-name="threequarters" unicode="&#xbe;" horiz-adv-x="2011" 
d="M672 1040q76 -25 114.5 -77t38.5 -115q0 -109 -92 -184.5t-252 -75.5q-90 0 -172 34.5t-157 106.5l77 80q48 -57 123 -90t137 -33q95 0 159.5 40t64.5 120q0 58 -49 97.5t-154 39.5h-139v104h133q81 0 132.5 37t51.5 97q0 63 -49 102t-131 39q-61 0 -119 -34.5
t-102 -92.5l-88 65q67 83 145.5 119.5t161.5 36.5q136 0 215.5 -69t79.5 -170q0 -55 -34.5 -99t-94.5 -78zM1761 301v-94h-155v-221h-99v221h-450v51l452 600h97v-557h155zM1530 1456h123l-1086 -1483h-123zM1192 301h315v420z" />
    <glyph glyph-name="questiondown" unicode="&#xbf;" horiz-adv-x="1104" 
d="M897 115l121 -31q-32 -191 -160 -304.5t-321 -113.5q-211 0 -318.5 125t-107.5 262q0 84 38.5 167.5t139.5 166.5q43 35 90.5 69.5t109.5 82.5q31 22 47.5 56.5t16.5 106.5v74h113v-88q0 -93 -26.5 -149.5t-104.5 -114.5q-43 -32 -76.5 -58t-93.5 -73q-66 -51 -91.5 -115
t-25.5 -119q0 -128 82.5 -203t224.5 -75q146 0 234 96.5t108 237.5zM696 1118v-186h-184v186h184z" />
    <glyph glyph-name="Agrave" unicode="&#xc0;" horiz-adv-x="1133" 
d="M655 1434l471 -1434h-133l-147 457h-567l-140 -457h-133l479 1434h170zM317 571h490l-246 758zM500 1810l184 -280h-100l-265 270v10h181z" />
    <glyph glyph-name="Aacute" unicode="&#xc1;" horiz-adv-x="1133" 
d="M655 1434l471 -1434h-133l-147 457h-567l-140 -457h-133l479 1434h170zM317 571h490l-246 758zM821 1810v-10l-264 -270h-100l184 280h180z" />
    <glyph glyph-name="Acircumflex" unicode="&#xc2;" horiz-adv-x="1133" 
d="M655 1434l471 -1434h-133l-147 457h-567l-140 -457h-133l479 1434h170zM317 571h490l-246 758zM647 1810l195 -290h-92l-179 190l-178 -190h-94l197 290h151z" />
    <glyph glyph-name="Atilde" unicode="&#xc3;" horiz-adv-x="1133" 
d="M655 1434l471 -1434h-133l-147 457h-567l-140 -457h-133l479 1434h170zM317 571h490l-246 758zM769 1784h86q-12 -102 -57.5 -155.5t-111.5 -53.5q-33 0 -60 9.5t-49 25.5q-34 25 -64.5 42t-50.5 17q-35 0 -58 -21.5t-26 -78.5h-84q10 99 55.5 154t112.5 55
q38 0 69.5 -15.5t61.5 -38.5q21 -15 47.5 -29t45.5 -14q41 0 60 24.5t23 78.5z" />
    <glyph glyph-name="Adieresis" unicode="&#xc4;" horiz-adv-x="1133" 
d="M655 1434l471 -1434h-133l-147 457h-567l-140 -457h-133l479 1434h170zM317 571h490l-246 758zM467 1747v-174h-137v174h137zM809 1747v-174h-137v174h137z" />
    <glyph glyph-name="Aring" unicode="&#xc5;" horiz-adv-x="1133" 
d="M655 1434l471 -1434h-133l-147 457h-567l-140 -457h-133l479 1434h170zM317 571h490l-246 758zM567 1907q92 0 149.5 -60t57.5 -153q0 -91 -61 -148.5t-148 -57.5t-148 57.5t-61 148.5q0 84 56 148.5t155 64.5zM565 1553q60 0 89.5 40.5t29.5 104.5q0 68 -28 106t-91 38
q-64 0 -91.5 -39.5t-27.5 -104.5q0 -62 29 -103.5t90 -41.5z" />
    <glyph glyph-name="AE" unicode="&#xc6;" horiz-adv-x="1866" 
d="M1802 115v-115h-895v477h-538l-250 -477h-142l779 1434h1028v-115h-748v-522h541v-115h-541v-567h766zM432 592h475v731h-86z" />
    <glyph glyph-name="Ccedilla" unicode="&#xc7;" horiz-adv-x="1260" 
d="M1083 469l117 -31q-54 -223 -187.5 -340t-324.5 -121l-22 -59q94 -11 136 -50t42 -106t-60.5 -107t-138.5 -40q-35 0 -80.5 9t-91.5 26l27 69q29 -15 63.5 -24.5t57.5 -9.5q50 0 79 19.5t29 55.5q0 42 -41.5 66.5t-107.5 28.5l53 125q-251 16 -395 210.5t-144 528.5
q0 331 163.5 536t414.5 205q193 0 325.5 -109t192.5 -337l-139 -27q-35 169 -138 262.5t-239 93.5q-185 0 -309.5 -164t-124.5 -460q0 -284 119.5 -455.5t310.5 -171.5q156 0 261.5 93t151.5 284z" />
    <glyph glyph-name="Egrave" unicode="&#xc8;" horiz-adv-x="1153" 
d="M1090 115v-115h-904v1434h885v-115h-756v-522h549v-115h-549v-567h775zM578 1810l184 -280h-100l-265 270v10h181z" />
    <glyph glyph-name="Eacute" unicode="&#xc9;" horiz-adv-x="1153" 
d="M1090 115v-115h-904v1434h885v-115h-756v-522h549v-115h-549v-567h775zM899 1810v-10l-264 -270h-100l184 280h180z" />
    <glyph glyph-name="Ecircumflex" unicode="&#xca;" horiz-adv-x="1153" 
d="M1090 115v-115h-904v1434h885v-115h-756v-522h549v-115h-549v-567h775zM706 1810l195 -290h-92l-179 190l-178 -190h-94l197 290h151z" />
    <glyph glyph-name="Edieresis" unicode="&#xcb;" horiz-adv-x="1153" 
d="M551 1747v-174h-137v174h137zM893 1747v-174h-137v174h137zM1090 115v-115h-904v1434h885v-115h-756v-522h549v-115h-549v-567h775z" />
    <glyph glyph-name="Igrave" unicode="&#xcc;" horiz-adv-x="506" 
d="M164 1810l184 -280h-100l-265 270v10h181zM317 1434v-1434h-129v1434h129z" />
    <glyph glyph-name="Iacute" unicode="&#xcd;" horiz-adv-x="506" 
d="M317 1434v-1434h-129v1434h129zM522 1810v-10l-264 -270h-100l184 280h180z" />
    <glyph glyph-name="Icircumflex" unicode="&#xce;" horiz-adv-x="506" 
d="M332 1810l174 -290h-92l-158 190l-158 -190h-94l176 290h152zM317 1434v-1434h-129v1434h129z" />
    <glyph glyph-name="Idieresis" unicode="&#xcf;" horiz-adv-x="506" 
d="M154 1747v-174h-138v174h138zM489 1747v-174h-137v174h137zM317 1434v-1434h-129v1434h129z" />
    <glyph glyph-name="Ntilde" unicode="&#xd1;" horiz-adv-x="1380" 
d="M1194 1434v-1434h-115l-776 1331v-1331h-117v1434h201l690 -1184v1184h117zM906 1784h86q-12 -102 -57.5 -155.5t-111.5 -53.5q-33 0 -60 9.5t-49 25.5q-34 25 -64.5 42t-50.5 17q-35 0 -58 -21.5t-26 -78.5h-84q10 99 55.5 154t112.5 55q38 0 69.5 -15.5t61.5 -38.5
q21 -15 47.5 -29t45.5 -14q41 0 60 24.5t23 78.5z" />
    <glyph glyph-name="Ograve" unicode="&#xd2;" horiz-adv-x="1350" 
d="M633 1810l184 -280h-100l-265 270v10h181zM1087 1270q78 -95 124 -234t46 -319q0 -160 -37.5 -293.5t-107.5 -228.5q-78 -106 -190 -163t-246 -57q-133 0 -246.5 58.5t-191.5 167.5q-66 93 -106 223.5t-40 292.5q0 182 48 321t126 232t183.5 141.5t226.5 48.5
q122 0 228.5 -48.5t182.5 -141.5zM676 90q196 0 317 164t121 465q0 312 -125 468t-313 156q-190 0 -314 -155.5t-124 -468.5q0 -300 121 -464.5t317 -164.5z" />
    <glyph glyph-name="Oacute" unicode="&#xd3;" horiz-adv-x="1350" 
d="M1087 1270q78 -95 124 -234t46 -319q0 -160 -37.5 -293.5t-107.5 -228.5q-78 -106 -190 -163t-246 -57q-133 0 -246.5 58.5t-191.5 167.5q-66 93 -106 223.5t-40 292.5q0 182 48 321t126 232t183.5 141.5t226.5 48.5q122 0 228.5 -48.5t182.5 -141.5zM676 90
q196 0 317 164t121 465q0 312 -125 468t-313 156q-190 0 -314 -155.5t-124 -468.5q0 -300 121 -464.5t317 -164.5zM899 1810v-10l-264 -270h-100l184 280h180z" />
    <glyph glyph-name="Ocircumflex" unicode="&#xd4;" horiz-adv-x="1350" 
d="M1087 1270q78 -95 124 -234t46 -319q0 -160 -37.5 -293.5t-107.5 -228.5q-78 -106 -190 -163t-246 -57q-133 0 -246.5 58.5t-191.5 167.5q-66 93 -106 223.5t-40 292.5q0 182 48 321t126 232t183.5 141.5t226.5 48.5q122 0 228.5 -48.5t182.5 -141.5zM676 90
q196 0 317 164t121 465q0 312 -125 468t-313 156q-190 0 -314 -155.5t-124 -468.5q0 -300 121 -464.5t317 -164.5zM751 1810l195 -290h-92l-179 190l-178 -190h-94l197 290h151z" />
    <glyph glyph-name="Otilde" unicode="&#xd5;" horiz-adv-x="1350" 
d="M1087 1270q78 -95 124 -234t46 -319q0 -160 -37.5 -293.5t-107.5 -228.5q-78 -106 -190 -163t-246 -57q-133 0 -246.5 58.5t-191.5 167.5q-66 93 -106 223.5t-40 292.5q0 182 48 321t126 232t183.5 141.5t226.5 48.5q122 0 228.5 -48.5t182.5 -141.5zM676 90
q196 0 317 164t121 465q0 312 -125 468t-313 156q-190 0 -314 -155.5t-124 -468.5q0 -300 121 -464.5t317 -164.5zM890 1784h86q-12 -102 -57.5 -155.5t-111.5 -53.5q-33 0 -60 9.5t-49 25.5q-34 25 -64.5 42t-50.5 17q-35 0 -58 -21.5t-26 -78.5h-84q10 99 55.5 154
t112.5 55q38 0 69.5 -15.5t61.5 -38.5q21 -15 47.5 -29t45.5 -14q41 0 60 24.5t23 78.5z" />
    <glyph glyph-name="Odieresis" unicode="&#xd6;" horiz-adv-x="1350" 
d="M571 1747v-174h-137v174h137zM913 1747v-174h-137v174h137zM1087 1270q78 -95 124 -234t46 -319q0 -160 -37.5 -293.5t-107.5 -228.5q-78 -106 -190 -163t-246 -57q-133 0 -246.5 58.5t-191.5 167.5q-66 93 -106 223.5t-40 292.5q0 182 48 321t126 232t183.5 141.5
t226.5 48.5q122 0 228.5 -48.5t182.5 -141.5zM676 90q196 0 317 164t121 465q0 312 -125 468t-313 156q-190 0 -314 -155.5t-124 -468.5q0 -300 121 -464.5t317 -164.5z" />
    <glyph glyph-name="multiply" unicode="&#xd7;" 
d="M659 532l353 -346l-82 -75l-342 348l-348 -348l-78 75l346 346l-346 347l78 82l348 -353l342 353l82 -82z" />
    <glyph glyph-name="Oslash" unicode="&#xd8;" horiz-adv-x="0" 
 />
    <glyph glyph-name="Ugrave" unicode="&#xd9;" horiz-adv-x="1341" 
d="M1165 1434v-914q0 -73 -10 -136t-27 -114q-46 -143 -160 -219t-309 -76q-200 0 -312.5 90.5t-149.5 253.5q-11 45 -16 97.5t-5 109.5v908h129v-906q0 -81 12.5 -145t34.5 -115q40 -85 117.5 -131.5t198.5 -46.5q122 0 201 41.5t120 118.5q28 51 44 122.5t16 153.5v908
h116zM611 1810l184 -280h-100l-265 270v10h181z" />
    <glyph glyph-name="Uacute" unicode="&#xda;" horiz-adv-x="1341" 
d="M925 1810v-10l-264 -270h-100l184 280h180zM1165 1434v-914q0 -73 -10 -136t-27 -114q-46 -143 -160 -219t-309 -76q-200 0 -312.5 90.5t-149.5 253.5q-11 45 -16 97.5t-5 109.5v908h129v-906q0 -81 12.5 -145t34.5 -115q40 -85 117.5 -131.5t198.5 -46.5q122 0 201 41.5
t120 118.5q28 51 44 122.5t16 153.5v908h116z" />
    <glyph glyph-name="Ucircumflex" unicode="&#xdb;" horiz-adv-x="1341" 
d="M756 1810l195 -290h-92l-179 190l-178 -190h-94l197 290h151zM1165 1434v-914q0 -73 -10 -136t-27 -114q-46 -143 -160 -219t-309 -76q-200 0 -312.5 90.5t-149.5 253.5q-11 45 -16 97.5t-5 109.5v908h129v-906q0 -81 12.5 -145t34.5 -115q40 -85 117.5 -131.5
t198.5 -46.5q122 0 201 41.5t120 118.5q28 51 44 122.5t16 153.5v908h116z" />
    <glyph glyph-name="Udieresis" unicode="&#xdc;" horiz-adv-x="1341" 
d="M576 1747v-174h-137v174h137zM918 1747v-174h-137v174h137zM1165 1434v-914q0 -73 -10 -136t-27 -114q-46 -143 -160 -219t-309 -76q-200 0 -312.5 90.5t-149.5 253.5q-11 45 -16 97.5t-5 109.5v908h129v-906q0 -81 12.5 -145t34.5 -115q40 -85 117.5 -131.5t198.5 -46.5
q122 0 201 41.5t120 118.5q28 51 44 122.5t16 153.5v908h116z" />
    <glyph glyph-name="Yacute" unicode="&#xdd;" horiz-adv-x="1153" 
d="M1016 1434h139l-516 -885v-549h-129v547l-512 887h152l432 -764zM858 1810v-10l-264 -270h-100l184 280h180z" />
    <glyph glyph-name="germandbls" unicode="&#xdf;" horiz-adv-x="1092" 
d="M700 838q146 -34 227 -135.5t81 -258.5q0 -200 -120.5 -332t-309.5 -132q-36 0 -65.5 3.5t-57.5 10.5q1 0 6 57t6 55q31 -7 58.5 -9.5t58.5 -2.5q163 0 229 103.5t66 248.5q0 164 -101 246t-317 82v100q184 0 254.5 72t70.5 187q0 69 -53 135.5t-174 66.5
q-104 0 -192 -72t-88 -268v-995h-117v991q0 231 116.5 342t278.5 111q140 0 246 -76.5t106 -224.5q0 -102 -54 -183t-155 -112v-10z" />
    <glyph glyph-name="agrave" unicode="&#xe0;" horiz-adv-x="1055" 
d="M938 10v-10h-121q-3 19 -11 57t-9 76q-67 -63 -163.5 -107t-195.5 -44q-156 0 -255 76t-99 202q0 173 169 268t533 150v63q0 87 -67 146t-215 59q-90 0 -156.5 -44.5t-99.5 -151.5l-123 20q39 134 139.5 211.5t249.5 77.5q124 0 204.5 -34.5t123.5 -92.5q29 -40 45 -94
t16 -123v-498q0 -75 10.5 -125t24.5 -82zM449 98q104 0 186 33.5t151 99.5v349q-290 -43 -431.5 -116t-141.5 -181q0 -88 59 -136.5t177 -48.5zM465 1434l186 -285h-100l-266 274v11h180z" />
    <glyph glyph-name="aacute" unicode="&#xe1;" horiz-adv-x="1055" 
d="M721 1434v-11l-263 -274h-100l184 285h179zM938 10v-10h-121q-3 19 -11 57t-9 76q-67 -63 -163.5 -107t-195.5 -44q-156 0 -255 76t-99 202q0 173 169 268t533 150v63q0 87 -67 146t-215 59q-90 0 -156.5 -44.5t-99.5 -151.5l-123 20q39 134 139.5 211.5t249.5 77.5
q124 0 204.5 -34.5t123.5 -92.5q29 -40 45 -94t16 -123v-498q0 -75 10.5 -125t24.5 -82zM449 98q104 0 186 33.5t151 99.5v349q-290 -43 -431.5 -116t-141.5 -181q0 -88 59 -136.5t177 -48.5z" />
    <glyph glyph-name="acircumflex" unicode="&#xe2;" horiz-adv-x="1055" 
d="M938 10v-10h-121q-3 19 -11 57t-9 76q-67 -63 -163.5 -107t-195.5 -44q-156 0 -255 76t-99 202q0 173 169 268t533 150v63q0 87 -67 146t-215 59q-90 0 -156.5 -44.5t-99.5 -151.5l-123 20q39 134 139.5 211.5t249.5 77.5q124 0 204.5 -34.5t123.5 -92.5q29 -40 45 -94
t16 -123v-498q0 -75 10.5 -125t24.5 -82zM449 98q104 0 186 33.5t151 99.5v349q-290 -43 -431.5 -116t-141.5 -181q0 -88 59 -136.5t177 -48.5zM587 1434l193 -295h-90l-178 194l-181 -194h-90l193 295h153z" />
    <glyph glyph-name="atilde" unicode="&#xe3;" horiz-adv-x="1055" 
d="M938 10v-10h-121q-3 19 -11 57t-9 76q-67 -63 -163.5 -107t-195.5 -44q-156 0 -255 76t-99 202q0 173 169 268t533 150v63q0 87 -67 146t-215 59q-90 0 -156.5 -44.5t-99.5 -151.5l-123 20q39 134 139.5 211.5t249.5 77.5q124 0 204.5 -34.5t123.5 -92.5q29 -40 45 -94
t16 -123v-498q0 -75 10.5 -125t24.5 -82zM449 98q104 0 186 33.5t151 99.5v349q-290 -43 -431.5 -116t-141.5 -181q0 -88 59 -136.5t177 -48.5zM710 1403h86q-12 -102 -57.5 -155.5t-111.5 -53.5q-33 0 -60 9.5t-49 25.5q-34 25 -64.5 42t-50.5 17q-35 0 -58 -21.5
t-26 -78.5h-84q10 99 55.5 154t112.5 55q38 0 69.5 -15.5t61.5 -38.5q21 -15 47.5 -29t45.5 -14q41 0 60 24.5t23 78.5z" />
    <glyph glyph-name="adieresis" unicode="&#xe4;" horiz-adv-x="1055" 
d="M938 10v-10h-121q-3 19 -11 57t-9 76q-67 -63 -163.5 -107t-195.5 -44q-156 0 -255 76t-99 202q0 173 169 268t533 150v63q0 87 -67 146t-215 59q-90 0 -156.5 -44.5t-99.5 -151.5l-123 20q39 134 139.5 211.5t249.5 77.5q124 0 204.5 -34.5t123.5 -92.5q29 -40 45 -94
t16 -123v-498q0 -75 10.5 -125t24.5 -82zM449 98q104 0 186 33.5t151 99.5v349q-290 -43 -431.5 -116t-141.5 -181q0 -88 59 -136.5t177 -48.5zM412 1378v-174h-137v174h137zM754 1378v-174h-137v174h137z" />
    <glyph glyph-name="aring" unicode="&#xe5;" horiz-adv-x="1055" 
d="M938 10v-10h-121q-3 19 -11 57t-9 76q-67 -63 -163.5 -107t-195.5 -44q-156 0 -255 76t-99 202q0 173 169 268t533 150v63q0 87 -67 146t-215 59q-90 0 -156.5 -44.5t-99.5 -151.5l-123 20q39 134 139.5 211.5t249.5 77.5q124 0 204.5 -34.5t123.5 -92.5q29 -40 45 -94
t16 -123v-498q0 -75 10.5 -125t24.5 -82zM449 98q104 0 186 33.5t151 99.5v349q-290 -43 -431.5 -116t-141.5 -181q0 -88 59 -136.5t177 -48.5zM520 1552q92 0 149.5 -60t57.5 -153q0 -91 -61 -148.5t-148 -57.5t-148 57.5t-61 148.5q0 84 56 148.5t155 64.5zM518 1198
q60 0 89.5 40.5t29.5 104.5q0 68 -28 106t-91 38q-64 0 -91.5 -39.5t-27.5 -104.5q0 -62 29 -103.5t90 -41.5z" />
    <glyph glyph-name="ae" unicode="&#xe6;" horiz-adv-x="1755" 
d="M1573 285l100 -58q-69 -109 -182 -176t-262 -67q-122 0 -215.5 50t-151.5 146q-108 -105 -208 -151.5t-220 -46.5q-155 0 -252.5 75.5t-97.5 202.5q0 173 167 268t535 150v63q0 87 -69 146t-217 59q-90 0 -156.5 -44.5t-99.5 -151.5l-123 20q39 134 139.5 211.5
t249.5 77.5q130 0 223.5 -48t138.5 -161q60 93 152 150t211 57q121 0 213.5 -48t146.5 -143q35 -60 55.5 -145.5t20.5 -192.5v-14h-776q0 -196 95 -308t249 -112q118 0 201 52t133 139zM444 98q104 0 201.5 44t169.5 128q-25 71 -29 157.5t-4 152.5q-290 -43 -429.5 -116
t-139.5 -181q0 -88 57 -136.5t174 -48.5zM899 612h647q-1 156 -79 245t-220 89q-160 0 -252 -94.5t-96 -239.5z" />
    <glyph glyph-name="ccedilla" unicode="&#xe7;" horiz-adv-x="997" 
d="M842 330l92 -45q-36 -130 -136.5 -215.5t-244.5 -85.5h-4l-25 -62q86 -9 128 -46t42 -105q0 -66 -57.5 -106t-130.5 -40q-34 0 -77 8t-87 25l27 68q28 -16 59.5 -25.5t52.5 -9.5q51 0 79 18.5t28 54.5q0 42 -37.5 68t-101.5 29l53 125q-188 19 -303 160.5t-115 375.5
q0 230 127 382.5t326 152.5q154 0 257.5 -76t135.5 -217l-117 -33q-29 111 -96 163t-168 52q-163 0 -248.5 -119t-85.5 -317q0 -190 88 -303t244 -113q118 0 189.5 60t105.5 176z" />
    <glyph glyph-name="egrave" unicode="&#xe8;" horiz-adv-x="1075" 
d="M893 285l100 -58q-58 -98 -173.5 -170.5t-272.5 -72.5q-208 0 -335.5 144.5t-127.5 373.5q0 236 131 395.5t338 159.5q121 0 214.5 -48t147.5 -143q36 -60 56 -145.5t20 -192.5v-14h-780q0 -196 96 -308t250 -112q120 0 203 52.5t133 138.5zM219 612h647
q-2 154 -79.5 244t-221.5 90q-161 0 -251 -98t-95 -236zM490 1434l186 -285h-100l-266 274v11h180z" />
    <glyph glyph-name="eacute" unicode="&#xe9;" horiz-adv-x="1075" 
d="M893 285l100 -58q-58 -98 -173.5 -170.5t-272.5 -72.5q-208 0 -335.5 144.5t-127.5 373.5q0 236 131 395.5t338 159.5q121 0 214.5 -48t147.5 -143q36 -60 56 -145.5t20 -192.5v-14h-780q0 -196 96 -308t250 -112q120 0 203 52.5t133 138.5zM219 612h647
q-2 154 -79.5 244t-221.5 90q-161 0 -251 -98t-95 -236zM763 1434v-11l-263 -274h-100l184 285h179z" />
    <glyph glyph-name="ecircumflex" unicode="&#xea;" horiz-adv-x="1075" 
d="M632 1434l193 -295h-90l-178 194l-181 -194h-90l193 295h153zM893 285l100 -58q-58 -98 -173.5 -170.5t-272.5 -72.5q-208 0 -335.5 144.5t-127.5 373.5q0 236 131 395.5t338 159.5q121 0 214.5 -48t147.5 -143q36 -60 56 -145.5t20 -192.5v-14h-780q0 -196 96 -308
t250 -112q120 0 203 52.5t133 138.5zM219 612h647q-2 154 -79.5 244t-221.5 90q-161 0 -251 -98t-95 -236z" />
    <glyph glyph-name="edieresis" unicode="&#xeb;" horiz-adv-x="1075" 
d="M893 285l100 -58q-58 -98 -173.5 -170.5t-272.5 -72.5q-208 0 -335.5 144.5t-127.5 373.5q0 236 131 395.5t338 159.5q121 0 214.5 -48t147.5 -143q36 -60 56 -145.5t20 -192.5v-14h-780q0 -196 96 -308t250 -112q120 0 203 52.5t133 138.5zM219 612h647
q-2 154 -79.5 244t-221.5 90q-161 0 -251 -98t-95 -236zM446 1378v-174h-137v174h137zM788 1378v-174h-137v174h137z" />
    <glyph glyph-name="igrave" unicode="&#xec;" horiz-adv-x="459" 
d="M158 1434l186 -285h-100l-266 274v11h180zM289 1040v-1040h-119v1040h119z" />
    <glyph glyph-name="iacute" unicode="&#xed;" horiz-adv-x="459" 
d="M476 1434v-11l-263 -274h-100l184 285h179zM289 1040v-1040h-119v1040h119z" />
    <glyph glyph-name="icircumflex" unicode="&#xee;" horiz-adv-x="471" 
d="M301 1434l174 -295h-84l-155 196l-160 -196h-86l174 295h137zM295 1040v-1040h-119v1040h119z" />
    <glyph glyph-name="idieresis" unicode="&#xef;" horiz-adv-x="471" 
d="M162 1378v-174h-131v174h131zM438 1378v-174h-131v174h131zM295 1040v-1040h-119v1040h119z" />
    <glyph glyph-name="ntilde" unicode="&#xf1;" horiz-adv-x="1096" 
d="M944 707v-707h-117v713q0 116 -54 173.5t-171 57.5q-86 0 -168.5 -44.5t-154.5 -108.5v-791h-117v1040h112v-153q83 87 170.5 129.5t192.5 42.5q97 0 170 -44.5t102 -113.5q20 -49 27.5 -96.5t7.5 -97.5zM745 1403h86q-12 -102 -57.5 -155.5t-111.5 -53.5q-33 0 -60 9.5
t-49 25.5q-34 25 -64.5 42t-50.5 17q-35 0 -58 -21.5t-26 -78.5h-84q10 99 55.5 154t112.5 55q38 0 69.5 -15.5t61.5 -38.5q21 -15 47.5 -29t45.5 -14q41 0 60 24.5t23 78.5z" />
    <glyph glyph-name="ograve" unicode="&#xf2;" horiz-adv-x="1079" 
d="M489 1434l186 -285h-100l-266 274v11h180zM539 1057q210 0 333 -147.5t123 -387.5q0 -244 -124.5 -391t-331.5 -147q-202 0 -328.5 147t-126.5 391q0 234 122.5 384.5t332.5 150.5zM539 94q157 0 241 114t84 316q0 194 -83 308t-242 114t-241.5 -112.5t-82.5 -309.5
q0 -201 82 -315.5t242 -114.5z" />
    <glyph glyph-name="oacute" unicode="&#xf3;" horiz-adv-x="1079" 
d="M539 1057q210 0 333 -147.5t123 -387.5q0 -244 -124.5 -391t-331.5 -147q-202 0 -328.5 147t-126.5 391q0 234 122.5 384.5t332.5 150.5zM539 94q157 0 241 114t84 316q0 194 -83 308t-242 114t-241.5 -112.5t-82.5 -309.5q0 -201 82 -315.5t242 -114.5zM748 1434v-11
l-263 -274h-100l184 285h179z" />
    <glyph glyph-name="ocircumflex" unicode="&#xf4;" horiz-adv-x="1079" 
d="M539 1057q210 0 333 -147.5t123 -387.5q0 -244 -124.5 -391t-331.5 -147q-202 0 -328.5 147t-126.5 391q0 234 122.5 384.5t332.5 150.5zM539 94q157 0 241 114t84 316q0 194 -83 308t-242 114t-241.5 -112.5t-82.5 -309.5q0 -201 82 -315.5t242 -114.5zM610 1434
l193 -295h-90l-178 194l-181 -194h-90l193 295h153z" />
    <glyph glyph-name="otilde" unicode="&#xf5;" horiz-adv-x="1079" 
d="M737 1403h86q-12 -102 -57.5 -155.5t-111.5 -53.5q-33 0 -60 9.5t-49 25.5q-34 25 -64.5 42t-50.5 17q-35 0 -58 -21.5t-26 -78.5h-84q10 99 55.5 154t112.5 55q38 0 69.5 -15.5t61.5 -38.5q21 -15 47.5 -29t45.5 -14q41 0 60 24.5t23 78.5zM539 1057q210 0 333 -147.5
t123 -387.5q0 -244 -124.5 -391t-331.5 -147q-202 0 -328.5 147t-126.5 391q0 234 122.5 384.5t332.5 150.5zM539 94q157 0 241 114t84 316q0 194 -83 308t-242 114t-241.5 -112.5t-82.5 -309.5q0 -201 82 -315.5t242 -114.5z" />
    <glyph glyph-name="odieresis" unicode="&#xf6;" horiz-adv-x="1079" 
d="M539 1057q210 0 333 -147.5t123 -387.5q0 -244 -124.5 -391t-331.5 -147q-202 0 -328.5 147t-126.5 391q0 234 122.5 384.5t332.5 150.5zM539 94q157 0 241 114t84 316q0 194 -83 308t-242 114t-241.5 -112.5t-82.5 -309.5q0 -201 82 -315.5t242 -114.5zM440 1378v-174
h-137v174h137zM782 1378v-174h-137v174h137z" />
    <glyph glyph-name="divide" unicode="&#xf7;" 
d="M586 284q40 -1 72 -33t32 -75q0 -40 -32 -71t-72 -31q-43 0 -75 32t-32 72q0 41 32.5 73t74.5 33zM586 1010q40 0 71 -32t31 -77q0 -40 -32 -71t-70 -30q-43 -1 -75 30.5t-32 72.5q0 45 32 76t75 31zM1059 598v-113h-953v113h953z" />
    <glyph glyph-name="ugrave" unicode="&#xf9;" horiz-adv-x="1092" 
d="M930 1040v-1040h-113v154q-58 -68 -149 -120t-215 -52q-104 0 -173 48t-94 109q-19 49 -27.5 96.5t-8.5 98.5v706h116v-712q0 -106 50.5 -169t175.5 -63q91 0 176 49.5t145 106.5v788h117zM481 1434l186 -285h-100l-266 274v11h180z" />
    <glyph glyph-name="uacute" unicode="&#xfa;" horiz-adv-x="1092" 
d="M773 1434v-11l-263 -274h-100l184 285h179zM930 1040v-1040h-113v154q-58 -68 -149 -120t-215 -52q-104 0 -173 48t-94 109q-19 49 -27.5 96.5t-8.5 98.5v706h116v-712q0 -106 50.5 -169t175.5 -63q91 0 176 49.5t145 106.5v788h117z" />
    <glyph glyph-name="ucircumflex" unicode="&#xfb;" horiz-adv-x="1092" 
d="M930 1040v-1040h-113v154q-58 -68 -149 -120t-215 -52q-104 0 -173 48t-94 109q-19 49 -27.5 96.5t-8.5 98.5v706h116v-712q0 -106 50.5 -169t175.5 -63q91 0 176 49.5t145 106.5v788h117zM610 1434l193 -295h-90l-178 194l-181 -194h-90l193 295h153z" />
    <glyph glyph-name="udieresis" unicode="&#xfc;" horiz-adv-x="1092" 
d="M930 1040v-1040h-113v154q-58 -68 -149 -120t-215 -52q-104 0 -173 48t-94 109q-19 49 -27.5 96.5t-8.5 98.5v706h116v-712q0 -106 50.5 -169t175.5 -63q91 0 176 49.5t145 106.5v788h117zM444 1378v-174h-137v174h137zM786 1378v-174h-137v174h137z" />
    <glyph glyph-name="yacute" unicode="&#xfd;" horiz-adv-x="899" 
d="M736 1434v-11l-263 -274h-100l184 285h179zM762 1040h123l-391 -1067q-57 -156 -133 -234.5t-201 -78.5q-28 0 -54.5 3.5t-58.5 12.5v111q41 -7 66.5 -12.5t50.5 -5.5q96 0 142.5 55t84.5 174l-377 1042h125l318 -878z" />
    <glyph glyph-name="ydieresis" unicode="&#xff;" horiz-adv-x="899" 
d="M762 1040h123l-391 -1067q-57 -156 -133 -234.5t-201 -78.5q-28 0 -54.5 3.5t-58.5 12.5v111q41 -7 66.5 -12.5t50.5 -5.5q96 0 142.5 55t84.5 174l-377 1042h125l318 -878zM342 1378v-174h-137v174h137zM684 1378v-174h-137v174h137z" />
    <glyph glyph-name="dotlessi" unicode="&#x131;" horiz-adv-x="455" 
d="M288 1040v-1040h-119v1040h119z" />
    <glyph glyph-name="OE" unicode="&#x152;" horiz-adv-x="2056" 
d="M1993 115v-115h-891v233q-80 -133 -186 -195.5t-240 -62.5q-133 0 -246.5 58.5t-191.5 167.5q-66 93 -106 223.5t-40 292.5q0 182 48 321t126 232t183.5 141.5t226.5 48.5q133 0 241 -60t185 -183v217h872v-115h-747v-522h540v-115h-540v-567h766zM676 90q196 0 317 161
t121 468q0 318 -125 471t-313 153q-190 0 -314 -155.5t-124 -468.5q0 -300 121 -464.5t317 -164.5z" />
    <glyph glyph-name="oe" unicode="&#x153;" horiz-adv-x="1841" 
d="M1659 285l100 -58q-60 -100 -174.5 -171.5t-269.5 -71.5q-131 0 -231 64.5t-160 174.5q-57 -110 -156 -174.5t-229 -64.5q-208 0 -331.5 149t-123.5 389q0 234 122.5 384.5t332.5 150.5q131 0 232.5 -64.5t160.5 -185.5q57 110 156.5 180t232.5 70q119 0 212.5 -48
t147.5 -143q36 -60 56 -145.5t20 -192.5v-14h-776q0 -196 94 -308t250 -112q117 0 199.5 51t134.5 140zM539 94q157 0 241 114t84 316q0 194 -83 308t-242 114t-241.5 -112.5t-82.5 -309.5q0 -201 82 -315.5t242 -114.5zM989 612h643q-1 155 -79 244.5t-220 89.5
q-159 0 -249 -97t-95 -237z" />
    <glyph glyph-name="Ydieresis" unicode="&#x178;" horiz-adv-x="1153" 
d="M487 1747v-174h-137v174h137zM829 1747v-174h-137v174h137zM1016 1434h139l-516 -885v-549h-129v547l-512 887h152l432 -764z" />
    <glyph glyph-name="florin" unicode="&#x192;" horiz-adv-x="842" 
d="M682 1401q41 0 83 -3t77 -9l-19 -107q-24 3 -62 6.5t-75 3.5q-57 0 -105 -26t-61 -97l-43 -256h209l-18 -94h-209l-140 -788q-18 -104 -93.5 -175.5t-186.5 -72.5q-41 0 -83 3t-77 9l19 107q24 -3 62 -7t75 -4q57 0 104 26.5t60 96.5l141 805h-164l19 94h163l41 240
q19 104 95 175.5t188 72.5z" />
    <glyph glyph-name="circumflex" unicode="&#x2c6;" horiz-adv-x="942" 
d="M550 1434l193 -295h-90l-178 194l-181 -194h-90l193 295h153z" />
    <glyph glyph-name="caron" unicode="&#x2c7;" horiz-adv-x="942" 
d="M651 1434h92l-194 -295h-152l-196 295h94l178 -195z" />
    <glyph glyph-name="uni02C9" unicode="&#x2c9;" horiz-adv-x="942" 
d="M754 1356v-103h-566v103h566z" />
    <glyph glyph-name="breve" unicode="&#x2d8;" horiz-adv-x="942" 
d="M647 1434h92q-21 -144 -84 -219.5t-184 -75.5q-124 0 -187 78.5t-81 216.5h92q6 -29 14 -59.5t25 -55.5q18 -29 50.5 -49.5t86.5 -20.5q52 0 83.5 18t49.5 46q17 26 26.5 59t16.5 62z" />
    <glyph glyph-name="dotaccent" unicode="&#x2d9;" horiz-adv-x="942" 
d="M535 1393v-183h-129v183h129z" />
    <glyph glyph-name="ring" unicode="&#x2da;" horiz-adv-x="942" 
d="M473 1552q92 0 149.5 -60t57.5 -153q0 -91 -61 -148.5t-148 -57.5t-148 57.5t-61 148.5q0 84 56 148.5t155 64.5zM471 1198q60 0 89.5 40.5t29.5 104.5q0 68 -28 106t-91 38q-64 0 -91.5 -39.5t-27.5 -104.5q0 -62 29 -103.5t90 -41.5z" />
    <glyph glyph-name="tilde" unicode="&#x2dc;" horiz-adv-x="942" 
d="M665 1403h86q-12 -102 -57.5 -155.5t-111.5 -53.5q-33 0 -60 9.5t-49 25.5q-34 25 -64.5 42t-50.5 17q-35 0 -58 -21.5t-26 -78.5h-84q10 99 55.5 154t112.5 55q38 0 69.5 -15.5t61.5 -38.5q21 -15 47.5 -29t45.5 -14q41 0 60 24.5t23 78.5z" />
    <glyph glyph-name="pi" unicode="&#x3c0;" horiz-adv-x="1114" 
d="M1047 98v-96q-25 -7 -56 -12.5t-65 -5.5q-84 0 -143.5 51.5t-59.5 197.5v705h-371v-938h-116v938h-160v102h954v-102h-190v-713q0 -93 35.5 -115t76.5 -22q16 0 47.5 3t47.5 7z" />
    <glyph glyph-name="endash" unicode="&#x2013;" 
d="M985 598v-115h-803v115h803z" />
    <glyph glyph-name="emdash" unicode="&#x2014;" horiz-adv-x="2200" 
d="M2017 598v-115h-1835v115h1835z" />
    <glyph glyph-name="uni2015" unicode="&#x2015;" horiz-adv-x="2085" 
d="M1874 115v-115h-1808v115h1808z" />
    <glyph glyph-name="quoteleft" unicode="&#x2018;" horiz-adv-x="477" 
d="M272 1434h84l-110 -240h86v-199h-187v176z" />
    <glyph glyph-name="quoteright" unicode="&#x2019;" horiz-adv-x="477" 
d="M332 1434v-174l-125 -265h-86l110 240h-86v199h187z" />
    <glyph glyph-name="quotesinglbase" unicode="&#x201a;" horiz-adv-x="477" 
d="M332 207v-174l-125 -264h-86l110 239h-86v199h187z" />
    <glyph glyph-name="quotedblleft" unicode="&#x201c;" horiz-adv-x="795" 
d="M272 1434h84l-110 -240h86v-199h-187v176zM588 1434h84l-109 -240h86v-199h-188v176z" />
    <glyph glyph-name="quotedblright" unicode="&#x201d;" horiz-adv-x="795" 
d="M332 1434v-174l-125 -265h-86l110 240h-86v199h187zM649 1434v-174l-127 -265h-84l109 240h-86v199h188z" />
    <glyph glyph-name="quotedblbase" unicode="&#x201e;" horiz-adv-x="795" 
d="M332 207v-174l-125 -264h-86l110 239h-86v199h187zM649 207v-174l-127 -264h-84l109 239h-86v199h188z" />
    <glyph glyph-name="dagger" unicode="&#x2020;" horiz-adv-x="1085" 
d="M879 1124v-149l-316 49l37 -274l-53 -738h-33l-45 738l53 274l-315 -49v149l315 -57l-61 367h149l-47 -367z" />
    <glyph glyph-name="daggerdbl" unicode="&#x2021;" horiz-adv-x="1085" 
d="M879 471v-149l-316 57l47 -367h-149l61 367l-315 -57v149l315 -49l-55 301l55 301l-315 -49v149l315 -57l-61 367h149l-47 -367l316 57v-149l-316 49l39 -299l-39 -303z" />
    <glyph glyph-name="bullet" unicode="&#x2022;" horiz-adv-x="866" 
d="M434 1114q162 0 278.5 -117.5t116.5 -279.5t-116.5 -280t-278.5 -118q-163 0 -280 118t-117 280t117 279.5t280 117.5z" />
    <glyph glyph-name="ellipsis" unicode="&#x2026;" horiz-adv-x="1751" 
d="M383 203v-203h-182v203h182zM966 203v-203h-182v203h182zM1550 203v-203h-182v203h182z" />
    <glyph glyph-name="perthousand" unicode="&#x2030;" horiz-adv-x="2499" 
d="M481 1401q131 0 227.5 -95t96.5 -231q0 -133 -96.5 -228t-227.5 -95q-133 0 -228 95t-95 228q0 136 95 231t228 95zM479 856q89 0 148 63t59 158q0 96 -59 156.5t-148 60.5t-148 -60.5t-59 -156.5q0 -95 59 -158t148 -63zM1276 625q131 0 227 -95t96 -231
q0 -133 -96 -228.5t-227 -95.5q-133 0 -228.5 95.5t-95.5 228.5q0 136 95.5 231t228.5 95zM1274 80q89 0 148 63t59 158q0 96 -59 156.5t-148 60.5t-148 -60.5t-59 -156.5q0 -95 59 -158t148 -63zM2028 625q131 0 227 -95t96 -231q0 -133 -96 -228.5t-227 -95.5
q-134 0 -229 95.5t-95 228.5q0 136 95 231t229 95zM2025 80q89 0 148 63t59 158q0 96 -59 156.5t-148 60.5q-88 0 -147 -60.5t-59 -156.5q0 -95 59 -158t147 -63zM1315 1376h123l-1000 -1376h-121z" />
    <glyph glyph-name="guilsinglleft" unicode="&#x2039;" horiz-adv-x="643" 
d="M428 918l86 -58l-274 -311l274 -309l-86 -58l-301 334v68z" />
    <glyph glyph-name="guilsinglright" unicode="&#x203a;" horiz-adv-x="643" 
d="M516 584v-68l-301 -334l-86 58l274 309l-274 311l86 58z" />
    <glyph glyph-name="fraction" unicode="&#x2044;" horiz-adv-x="350" 
d="M684 1456h123l-1086 -1483h-122z" />
    <glyph glyph-name="Euro" unicode="&#x20ac;" 
d="M707 1405q135 0 225.5 -44.5t167.5 -127.5l-107 -74q-54 64 -117.5 100.5t-164.5 36.5q-141 0 -229.5 -116.5t-116.5 -302.5h436v-82h-449q-1 -28 -2.5 -56t-1.5 -57q0 -32 1.5 -63t2.5 -60h381v-82h-366q31 -180 124 -285.5t244 -105.5q78 0 147 46t122 116l92 -78
q-84 -94 -181 -142t-239 -48q-150 0 -271 125t-163 372h-150v82h139q-1 28 -2.5 58t-1.5 61t1.5 60t2.5 57h-139v82h148q40 259 169 393.5t298 134.5z" />
    <glyph glyph-name="trademark" unicode="&#x2122;" horiz-adv-x="985" 
d="M868 1434l15 -433h-60l-16 367l-123 -367h-35l-123 365l-18 -365h-57l22 433h98l97 -308l98 308h102zM387 1434v-58h-117v-375h-65v377h-115v56h297z" />
    <glyph glyph-name="onethird" unicode="&#x2153;" horiz-adv-x="2011" 
d="M1698 420q76 -26 114.5 -78t38.5 -115q0 -108 -92 -184t-252 -76q-90 0 -172 35t-155 109l75 77q48 -56 122 -89t136 -33q96 0 162 40t66 119q0 58 -50 99t-155 41h-139v102h133q79 0 131.5 36.5t52.5 96.5q0 63 -48.5 102t-131.5 39q-61 0 -119 -33.5t-104 -93.5l-86 68
q67 81 145.5 118.5t161.5 37.5q134 0 214.5 -70.5t80.5 -171.5q0 -55 -35.5 -98.5t-93.5 -77.5zM729 707v-93h-481v93h192v620l-190 -80v78q93 41 130 68.5t89 70.5h84v-757h176zM1497 1456h123l-1086 -1483h-122z" />
    <glyph glyph-name="twothirds" unicode="&#x2154;" horiz-adv-x="2011" 
d="M1712 420q78 -26 117 -78t39 -115q0 -108 -93 -184t-253 -76q-90 0 -172.5 35t-157.5 109l78 77q49 -56 123 -89t137 -33q95 0 160 40t65 119q0 58 -48.5 99t-154.5 41h-139v102h129q83 0 136 36.5t53 96.5q0 63 -49.5 102t-133.5 39q-61 0 -119 -33.5t-102 -93.5l-88 68
q69 81 147 118.5t162 37.5q135 0 214 -70.5t79 -171.5q0 -55 -34.5 -98.5t-94.5 -77.5zM838 713v-95h-621v72q102 66 182.5 122t143.5 108q73 60 121.5 137t48.5 143q0 73 -46.5 117.5t-136.5 44.5q-82 0 -137 -46.5t-108 -115.5l-74 80q69 79 148.5 127.5t170.5 48.5
q135 0 216 -71.5t81 -192.5q0 -75 -46 -148t-156 -172q-39 -34 -96.5 -75t-118.5 -84h428zM1511 1456h123l-1086 -1483h-122z" />
    <glyph glyph-name="oneeighth" unicode="&#x215b;" horiz-adv-x="2011" 
d="M1679 424q93 -38 134.5 -93.5t41.5 -121.5q0 -86 -76 -164t-263 -78q-176 0 -258 73.5t-82 172.5q0 64 46.5 123t133.5 96q-64 29 -104 81t-40 110q0 93 80.5 157t227.5 64q149 0 227 -66t78 -157q0 -63 -40 -112.5t-106 -84.5zM1522 68q107 0 165 40t58 101q0 37 -23 68
t-73 57q-31 15 -77 31t-110 26q-98 -29 -135 -76.5t-37 -105.5q0 -66 61 -103.5t171 -37.5zM1575 453q86 37 110.5 84t24.5 90q0 51 -48.5 86t-143.5 35q-89 0 -138 -35t-49 -86q0 -37 18.5 -66.5t61.5 -54.5q28 -16 69 -29.5t95 -23.5zM729 707v-93h-481v93h192v620
l-190 -80v78q93 41 130 68.5t89 70.5h84v-757h176zM1489 1456h123l-1086 -1483h-123z" />
    <glyph glyph-name="threeeighths" unicode="&#x215c;" horiz-adv-x="2011" 
d="M686 1040q78 -25 117 -77t39 -115q0 -109 -93 -184.5t-253 -75.5q-90 0 -172.5 34.5t-157.5 106.5l78 80q47 -57 122 -90t138 -33q93 0 158 40t65 120q0 58 -48.5 97.5t-154.5 39.5h-137v104h129q83 0 134.5 37t51.5 97q0 63 -48.5 102t-131.5 39q-61 0 -119.5 -34.5
t-101.5 -92.5l-88 65q67 83 146 119.5t161 36.5q136 0 215.5 -69t79.5 -170q0 -55 -34.5 -99t-94.5 -78zM1712 424q95 -38 135.5 -93.5t40.5 -121.5q0 -86 -76.5 -164t-263.5 -78q-175 0 -256.5 73.5t-81.5 172.5q0 64 47 123t134 96q-66 29 -105 81t-39 110q0 93 79.5 157
t225.5 64q149 0 227.5 -66t78.5 -157q0 -63 -40 -112.5t-106 -84.5zM1556 68q106 0 163 40t57 101q0 37 -22 68t-73 57q-31 15 -76.5 31t-109.5 26q-99 -29 -135.5 -76.5t-36.5 -105.5q0 -66 59.5 -103.5t173.5 -37.5zM1610 453q84 37 108.5 84t24.5 90q0 51 -49 86t-144 35
q-90 0 -140 -35t-50 -86q0 -37 19.5 -66.5t62.5 -54.5q28 -16 69 -29.5t99 -23.5zM1517 1456h123l-1086 -1483h-122z" />
    <glyph glyph-name="fiveeighths" unicode="&#x215d;" horiz-adv-x="2011" 
d="M563 1184q136 0 219.5 -85t83.5 -204q0 -118 -90.5 -212.5t-238.5 -94.5q-95 0 -177 34.5t-157 106.5l78 80q49 -58 123 -90.5t135 -32.5q90 0 153.5 56.5t63.5 148.5q0 95 -58 143.5t-139 48.5q-58 0 -119.5 -24.5t-105.5 -87.5l-78 49l43 424h535l-15 -96h-422
l-30 -222q49 28 97 43t99 15zM1712 424q95 -38 135.5 -93.5t40.5 -121.5q0 -86 -76.5 -164t-263.5 -78q-175 0 -256.5 73.5t-81.5 172.5q0 64 47 123t134 96q-66 29 -105 81t-39 110q0 93 79.5 157t225.5 64q149 0 227.5 -66t78.5 -157q0 -63 -40 -112.5t-106 -84.5z
M1556 68q106 0 163 40t57 101q0 37 -22 68t-73 57q-31 15 -76.5 31t-109.5 26q-99 -29 -135.5 -76.5t-36.5 -105.5q0 -66 59.5 -103.5t173.5 -37.5zM1610 453q84 37 108.5 84t24.5 90q0 51 -49 86t-144 35q-90 0 -140 -35t-50 -86q0 -37 19.5 -66.5t62.5 -54.5
q28 -16 69 -29.5t99 -23.5zM1517 1456h123l-1086 -1483h-122z" />
    <glyph glyph-name="seveneighths" unicode="&#x215e;" horiz-adv-x="2011" 
d="M1712 424q93 -38 134.5 -93.5t41.5 -121.5q0 -86 -76.5 -164t-263.5 -78q-177 0 -257.5 73.5t-80.5 172.5q0 64 46 123t133 96q-64 29 -104 81t-40 110q0 93 80.5 157t226.5 64q150 0 228 -66t78 -157q0 -63 -40 -112.5t-106 -84.5zM899 1444v-76q-72 -93 -142 -197
t-122 -217q-31 -64 -59 -158.5t-44 -193.5h-118q15 77 43 164t59 158q63 140 134 253.5t118 170.5h-510l14 96h627zM1554 68q107 0 165.5 40t58.5 101q0 37 -23 68t-74 57q-31 15 -76.5 31t-109.5 26q-99 -29 -135.5 -76.5t-36.5 -105.5q0 -66 60.5 -103.5t170.5 -37.5z
M1608 453q85 37 110 84t25 90q0 51 -50 86t-143 35q-88 0 -138 -35t-50 -86q0 -35 18 -64.5t60 -54.5q26 -17 68 -31t100 -24zM1458 1456h123l-1086 -1483h-122z" />
    <glyph glyph-name="partialdiff" unicode="&#x2202;" horiz-adv-x="0" 
 />
    <glyph glyph-name="Delta" unicode="&#x2206;" horiz-adv-x="0" 
 />
    <glyph glyph-name="product" unicode="&#x220f;" horiz-adv-x="0" 
 />
    <glyph glyph-name="minus" unicode="&#x2212;" 
d="M1059 598v-113h-950v113h950z" />
    <glyph glyph-name="uni2215" unicode="&#x2215;" horiz-adv-x="1063" 
d="M840 1434h118l-827 -1751h-119z" />
    <glyph glyph-name="uni2219" unicode="&#x2219;" horiz-adv-x="625" 
d="M311 674q51 0 86 -36t35 -83q0 -49 -35 -85t-86 -36q-49 0 -82.5 36t-33.5 85q0 47 33.5 83t82.5 36z" />
    <glyph glyph-name="radical" unicode="&#x221a;" horiz-adv-x="1556" 
d="M1313 1497h110l-516 -1554h-82l-395 858l-221 -103l-39 80l350 172l354 -790z" />
    <glyph glyph-name="infinity" unicode="&#x221e;" horiz-adv-x="1661" 
d="M1190 961q145 0 232 -110t87 -286q0 -209 -100 -311t-246 -102q-108 0 -196.5 63t-149.5 203q-70 -143 -154.5 -204.5t-191.5 -61.5q-147 0 -233 108.5t-86 284.5q0 209 100.5 312.5t247.5 103.5q108 0 195.5 -64.5t148.5 -202.5q69 140 154 203.5t192 63.5zM713 446
q22 42 44 83t42 92q-54 107 -129 160t-158 53q-119 0 -184.5 -76.5t-65.5 -212.5q0 -112 52 -190.5t159 -78.5q93 0 144 45.5t96 124.5zM1151 276q118 0 183 76.5t65 212.5q0 112 -52 190.5t-159 78.5q-95 0 -145.5 -45.5t-96.5 -124.5q-25 -42 -46.5 -89t-37.5 -86
q54 -105 130 -159t159 -54z" />
    <glyph glyph-name="integral" unicode="&#x222b;" horiz-adv-x="0" 
 />
    <glyph glyph-name="filledbox" unicode="&#x25a0;" horiz-adv-x="1096" 
d="M987 1153v-879h-878v879h878z" />
    <glyph glyph-name="triagup" unicode="&#x25b2;" horiz-adv-x="1200" 
d="M600 1286l559 -1130h-1118z" />
    <glyph glyph-name="uni25B6" unicode="&#x25b6;" horiz-adv-x="1239" 
d="M109 1276l1130 -559l-1130 -559v1118z" />
    <glyph glyph-name="triagdn" unicode="&#x25bc;" horiz-adv-x="1200" 
d="M41 1264h1118l-559 -1131z" />
    <glyph glyph-name="uni25C0" unicode="&#x25c0;" horiz-adv-x="1239" 
d="M1130 1276v-1118l-1130 559z" />
    <glyph glyph-name="lozenge" unicode="&#x25ca;" horiz-adv-x="993" 
d="M545 1386l360 -679l-360 -707h-111l-362 707l362 679h111zM489 100l304 607l-304 579l-307 -579z" />
    <glyph glyph-name="uni2B24" unicode="&#x2b24;" horiz-adv-x="1548" 
d="M1516 741q0 -103 -26.5 -197.5t-74.5 -176.5q-48 -83 -115.5 -150.5t-149.5 -115.5q-83 -48 -178 -74.5t-198 -26.5t-198 26.5t-177 74.5q-83 48 -150 115.5t-115 150.5q-48 82 -74.5 176.5t-26.5 197.5t26.5 198t74.5 177t115 149.5t150 115.5q82 48 177 74t198 26
t198 -26t178 -74q82 -48 149.5 -115.5t115.5 -149.5t74.5 -177t26.5 -198z" />
    <glyph glyph-name="grave.uc" horiz-adv-x="1133" 
d="M500 1810l184 -280h-100l-265 270v10h181z" />
    <glyph glyph-name="acute.uc" horiz-adv-x="1133" 
d="M821 1810v-10l-264 -270h-100l184 280h180z" />
    <glyph glyph-name="circumflex.uc" horiz-adv-x="1133" 
d="M647 1810l195 -290h-92l-179 190l-178 -190h-94l197 290h151z" />
    </font>
</defs>
</svg>
